<?xml version="1.0" encoding="UTF-8"?>
<svg width="25px" height="24px" viewBox="0 0 25 24" version="1.1" xmlns="http://www.w3.org/2000/svg" xmlns:xlink="http://www.w3.org/1999/xlink">
    <!-- Generator: Sketch 55 (78076) - https://sketchapp.com -->
    <title>Chat</title>
    <desc>Created with Sketch.</desc>
    <g id="Symbols" stroke="none" stroke-width="1" fill="none" fill-rule="evenodd" stroke-linecap="round" stroke-linejoin="round">
        <g id="ChipChat" transform="translate(-21.000000, -6.000000)" stroke="#263444">
            <g id="Chat" transform="translate(22.000000, 7.000000)">
                <g id="Group-13">
                    <path d="M7.75,17.50005 L4.75,19.75005 L4.75,15.25005 L1.75,15.25005 C0.922,15.25005 0.25,14.57805 0.25,13.75005 L0.25,1.75005 C0.25,0.92205 0.922,0.25005 1.75,0.25005 L18.25,0.25005 C19.078,0.25005 19.75,0.92205 19.75,1.75005 L19.75,6.25005" id="Stroke-1"></path>
                    <path d="M4.75,4.75005 L15.25,4.75005" id="Stroke-3"></path>
                    <path d="M4.75,9.25005 L7.75,9.25005" id="Stroke-5"></path>
                    <polygon id="Stroke-7" points="22.75 18.25005 19.75 18.25005 19.75 22.75005 15.25 18.25005 10.75 18.25005 10.75 9.25005 22.75 9.25005"></polygon>
                    <path d="M19.75,12.25005 L13.75,12.25005" id="Stroke-9"></path>
                    <path d="M19.75,15.25005 L13.75,15.25005" id="Stroke-11"></path>
                </g>
            </g>
        </g>
    </g>
</svg>