<?xml version="1.0" encoding="UTF-8"?>
<svg width="93px" height="93px" viewBox="0 0 93 93" version="1.1" xmlns="http://www.w3.org/2000/svg" xmlns:xlink="http://www.w3.org/1999/xlink">
    <!-- Generator: Sketch 55 (78076) - https://sketchapp.com -->
    <title>IconeDonnéesDeSanté</title>
    <desc>Created with Sketch.</desc>
    <g id="Landing-MesDocteurs.com-UI-itération" stroke="none" stroke-width="1" fill="none" fill-rule="evenodd">
        <g id="MesDocteurs.com" transform="translate(-662.000000, -1540.000000)">
            <g id="Notre-Approche" transform="translate(245.000000, 943.000000)">
                <g id="Path" transform="translate(418.000000, 598.000000)">
                    <g id="IconeDonnéesDeSanté" transform="translate(-0.000000, 0.000000)">
                        <path d="M35.1428571,65.0697674 L55.952381,65.0697674" id="Path" stroke="#223546" stroke-width="2" stroke-linecap="round" stroke-linejoin="round"></path>
                        <path d="M27,54.8372093 L65,54.8372093" id="Path" stroke="#223546" stroke-width="2" stroke-linecap="round" stroke-linejoin="round"></path>
                        <path d="M59.9333333,31.5813953 C62.7318222,31.5813953 65,33.8528541 65,36.6553911 L65,54.4143763 C65,57.2169133 62.7318222,59.4883721 59.9333333,59.4883721 L32.0666667,59.4883721 C29.2681778,59.4883721 27,57.2169133 27,54.4143763 L27,36.6553911 C27,33.8528541 29.2681778,31.5813953 32.0666667,31.5813953" id="Path" stroke="#223546" stroke-width="2" stroke-linecap="round" stroke-linejoin="round"></path>
                        <path d="M38.4980159,33.4418605 L52.5972222,33.4418605 C52.9509841,33.4418605 53.2380952,33.7544186 53.2380952,34.1395349 L53.2380952,43.9069767 C53.2380952,44.292093 52.9509841,44.6046512 52.5972222,44.6046512 L38.4980159,44.6046512 C38.144254,44.6046512 37.8571429,44.292093 37.8571429,43.9069767 L37.8571429,34.1395349 C37.8571429,33.7544186 38.144254,33.4418605 38.4980159,33.4418605 Z" id="Path" stroke="#223546" stroke-width="2" stroke-linecap="round" stroke-linejoin="round"></path>
                        <polygon id="Path" stroke="#223546" stroke-width="2" stroke-linecap="round" stroke-linejoin="round" points="52.3333333 65.0697674 39.6666667 65.0697674 40.9333333 59.4883721 51.0666667 59.4883721"></polygon>
                        <path d="M45.547619,38.3255814 C45.3603333,38.3255814 45.2083333,38.6381395 45.2083333,39.0232558 C45.2083333,39.4083721 45.3603333,39.7209302 45.547619,39.7209302 C45.7349048,39.7209302 45.8869048,39.4083721 45.8869048,39.0232558 C45.8869048,38.6381395 45.7349048,38.3255814 45.547619,38.3255814 L45.547619,38.3255814" id="Path" stroke="#223546" stroke-width="2" stroke-linecap="round" stroke-linejoin="round"></path>
                        <path d="M40.5714286,33.4418605 L40.5714286,30.9612403 C40.5714286,28.2209819 42.7991032,26 45.547619,26 C48.2961349,26 50.5238095,28.2209819 50.5238095,30.9612403 L50.5238095,33.4418605" id="Path" stroke="#223546" stroke-width="2" stroke-linecap="round" stroke-linejoin="round"></path>
                        <path d="M57.1824547,3.34486486 C57.1086709,3.34486486 57.0102925,3.34486486 56.9365087,3.32027027 C55.4362385,2.90216216 53.9359682,2.58243243 52.4111033,2.33648649 C51.9192114,2.2627027 51.5994817,1.82 51.6732655,1.3527027 C51.6732655,1.32810811 51.6732655,1.32810811 51.6732655,1.30351351 C51.7470493,0.811621622 52.2143466,0.491891892 52.6816439,0.565675676 C52.6816439,0.565675676 52.6816439,0.565675676 52.7062385,0.565675676 C54.3048871,0.811621622 55.8789412,1.15594595 57.4284006,1.57405405 C57.8956979,1.69702703 58.1908331,2.18891892 58.0678601,2.68081081 C57.9448871,3.07432432 57.6005628,3.34486486 57.1824547,3.34486486 Z" id="Path" stroke="#3C4957" stroke-width="1" fill="#3C4957" fill-rule="nonzero"></path>
                        <path d="M45.4754277,90.9754054 C20.339752,90.9754054 -0.0245723403,70.5864865 2.22542673e-05,45.4508108 C2.22542673e-05,20.3643243 20.3151574,-4.54747351e-13 45.4016439,-4.54747351e-13 C45.4262385,-4.54747351e-13 45.4508331,-4.54747351e-13 45.4754277,-4.54747351e-13 C45.9673196,-4.54747351e-13 46.3854277,0.393513514 46.3854277,0.91 C46.3854277,0.91 46.3854277,0.91 46.3854277,0.91 C46.3854277,1.40189189 45.9919141,1.79540541 45.5000223,1.79540541 C45.5000223,1.79540541 45.4754277,1.79540541 45.4754277,1.79540541 C21.3481304,1.79540541 1.79542766,21.3481081 1.77083307,45.4754054 C1.77083307,57.0594595 6.37002225,68.1762162 14.5600223,76.3662162 C31.6286709,93.4348649 59.2975898,93.4348649 76.3416439,76.3662162 C93.4102925,59.2975676 93.3856979,31.6040541 76.3170493,14.56 C73.119752,11.3627027 69.4305628,8.6572973 65.3724547,6.59135135 C64.929752,6.37 64.7575898,5.82891892 64.9789412,5.38621622 C65.2002925,4.94351351 65.7413736,4.77135135 66.1840763,4.9927027 L66.1840763,4.9927027 L66.1840763,4.9927027 C81.3835358,12.7645946 90.9508331,28.4313514 90.9508331,45.5 C90.9508331,70.6110811 70.5865087,90.9754054 45.4754277,90.9754054 Z" id="Path" stroke="#3C4957" stroke-width="1" fill="#3C4957" fill-rule="nonzero"></path>
                        <path d="M62.7162385,3.86135135 C62.7162385,4.50081081 62.199752,4.9927027 61.5602925,4.9927027 C60.9208331,4.9927027 60.4289412,4.47621622 60.4289412,3.83675676 C60.4289412,3.22189189 60.9454277,2.70540541 61.5602925,2.70540541 C61.5602925,2.70540541 61.5848871,2.70540541 61.5848871,2.70540541 C62.2243466,2.70540541 62.7162385,3.22189189 62.7162385,3.86135135 Z" id="Path" stroke="#3C4957" stroke-width="1" fill="#3C4957" fill-rule="nonzero"></path>
                    </g>
                </g>
            </g>
        </g>
    </g>
</svg>