<?xml version="1.0" encoding="UTF-8"?>
<svg width="93px" height="93px" viewBox="0 0 93 93" version="1.1" xmlns="http://www.w3.org/2000/svg" xmlns:xlink="http://www.w3.org/1999/xlink">
    <!-- Generator: Sketch 55 (78076) - https://sketchapp.com -->
    <title>IconeOrdreDesMedecins</title>
    <desc>Created with Sketch.</desc>
    <g id="Landing-MesDocteurs.com-UI-itération" stroke="none" stroke-width="1" fill="none" fill-rule="evenodd">
        <g id="MesDocteurs.com" transform="translate(-662.000000, -1244.000000)" stroke="#3C4957">
            <g id="Notre-Approche" transform="translate(245.000000, 943.000000)">
                <g id="Medecine" transform="translate(418.000000, 302.000000)">
                    <g id="IconeOrdreDesMedecins" transform="translate(-0.000000, 0.000000)">
                        <path d="M68.0710835,29.5128341 L59.9742502,26.4166674" id="Shape" stroke-width="1.5" stroke-linecap="round" stroke-linejoin="round"></path>
                        <path d="M63.5622502,36.9011674 L57.1055835,31.1183341" id="Shape" stroke-width="1.5" stroke-linecap="round" stroke-linejoin="round"></path>
                        <path d="M23.5460835,29.5128341 L31.6429168,26.4166674" id="Shape" stroke-width="1.5" stroke-linecap="round" stroke-linejoin="round"></path>
                        <path d="M28.0549168,36.9011674 L34.5115835,31.1183341" id="Shape" stroke-width="1.5" stroke-linecap="round" stroke-linejoin="round"></path>
                        <path d="M38.6889168,43.7500007 C40.1016904,44.1906215 41.552382,44.4988935 43.0222502,44.6708341" id="Shape" stroke-width="1.5" stroke-linecap="round" stroke-linejoin="round"></path>
                        <path d="M52.3085835,43.9341674 C52.5252502,43.8756674 52.7224168,43.8150007 52.9260835,43.7500007" id="Shape" stroke-width="1.5" stroke-linecap="round" stroke-linejoin="round"></path>
                        <path d="M48.5992502,44.6708341 C49.8532696,44.5240084 51.0936249,44.2776761 52.3085835,43.9341674" id="Shape" stroke-width="1.5" stroke-linecap="round" stroke-linejoin="round"></path>
                        <path d="M62.1647502,38.3333341 C66.6569838,34.1059586 69.3290446,28.2971982 69.6159168,22.1353341 C69.6301519,21.8391171 69.522331,21.5500149 69.3176033,21.3354603 C69.1128755,21.1209056 68.8291421,20.9996589 68.5325835,21.0000007 L59.6947502,21.0000007 C58.1377894,21.0008687 56.7003496,21.8348978 55.9269168,23.1861674 C54.1671286,25.7669844 52.0183399,28.0597566 49.5569168,29.9830007" id="Shape" stroke-width="1.5" stroke-linecap="round" stroke-linejoin="round"></path>
                        <path d="M29.2964168,38.1860007 C24.8969091,33.9688758 22.2853376,28.2229531 22.0012502,22.1353341 C21.9870152,21.8391171 22.0948361,21.5500149 22.2995638,21.3354603 C22.5042915,21.1209056 22.7880249,20.9996589 23.0845835,21.0000007 L31.9224168,21.0000007 C33.4793776,21.0008687 34.9168174,21.8348978 35.6902502,23.1861674 C37.4500384,25.7669844 39.5988271,28.0597566 42.0602502,29.9830007" id="Shape" stroke-width="1.5" stroke-linecap="round" stroke-linejoin="round"></path>
                        <path d="M43.9279168,58.6111674 L43.7090835,55.2658341" id="Shape" stroke-width="1.5" stroke-linecap="round" stroke-linejoin="round"></path>
                        <path d="M47.8517502,56.1303341 L47.7282502,58.0153341" id="Shape" stroke-width="1.5" stroke-linecap="round" stroke-linejoin="round"></path>
                        <path d="M43.1630835,46.8743341 L41.7569168,25.3333341 C41.658049,23.8225634 42.4079431,22.3822672 43.7023081,21.5968869 C44.9966731,20.8115066 46.620494,20.8115066 47.9148589,21.5968869 C49.2092239,22.3822672 49.959118,23.8225634 49.8602502,25.3333341 L48.4085835,47.5503341" id="Shape" stroke-width="1.5" stroke-linecap="round" stroke-linejoin="round"></path>
                        <path d="M54.0289168,67.8758341 C52.8784168,69.5940007 49.6327502,70.8333341 45.8085835,70.8333341 C41.0224168,70.8333341 37.1419168,68.8941674 37.1419168,66.5000007 C37.1419168,64.1058341 41.0224168,62.1666674 45.8085835,62.1666674" id="Shape" stroke-width="1.5" stroke-linecap="round" stroke-linejoin="round"></path>
                        <path d="M37.6012502,60.2860007 C36.1577424,59.6602599 35.1570272,58.3127622 34.9752502,56.7500007 C35.0417987,55.6401656 35.6043826,54.6192389 36.5070835,53.9701674" id="Shape" stroke-width="1.5" stroke-linecap="round" stroke-linejoin="round"></path>
                        <path d="M45.8085835,51.3333341 C51.7907502,51.3333341 56.6419168,53.7578341 56.6419168,56.7500007 C56.6419168,58.4313341 55.1079168,59.9350007 52.7029168,60.9295007 C50.5051114,61.7791396 48.164678,62.1991231 45.8085835,62.1666674" id="Shape" stroke-width="1.5" stroke-linecap="round" stroke-linejoin="round"></path>
                        <path d="M54.5510835,50.1460007 C58.4380835,48.9695007 60.9752502,47.0281674 60.9752502,44.8333341 C60.9763276,42.8027135 59.9613898,40.9062112 58.2712502,39.7806674 L54.4752502,37.2500007" id="Shape" stroke-width="1.5" stroke-linecap="round" stroke-linejoin="round"></path>
                        <path d="M37.141916,37.2500007 L33.3459168,39.7806674 C31.6557772,40.9062112 30.6408394,42.8027135 30.6419168,44.8333341 C30.6419168,48.4235007 37.4322502,51.3333341 45.8085835,51.3333341" id="Shape" stroke-width="1.5" stroke-linecap="round" stroke-linejoin="round"></path>
                        <path d="M57.1824547,3.34486486 C57.1086709,3.34486486 57.0102925,3.34486486 56.9365087,3.32027027 C55.4362385,2.90216216 53.9359682,2.58243243 52.4111033,2.33648649 C51.9192114,2.2627027 51.5994817,1.82 51.6732655,1.3527027 C51.6732655,1.32810811 51.6732655,1.32810811 51.6732655,1.30351351 C51.7470493,0.811621622 52.2143466,0.491891892 52.6816439,0.565675676 C52.6816439,0.565675676 52.6816439,0.565675676 52.7062385,0.565675676 C54.3048871,0.811621622 55.8789412,1.15594595 57.4284006,1.57405405 C57.8956979,1.69702703 58.1908331,2.18891892 58.0678601,2.68081081 C57.9448871,3.07432432 57.6005628,3.34486486 57.1824547,3.34486486 Z" id="Path" stroke-width="1" fill="#3C4957" fill-rule="nonzero"></path>
                        <path d="M45.4754277,90.9754054 C20.339752,90.9754054 -0.0245723403,70.5864865 2.22542673e-05,45.4508108 C2.22542673e-05,20.3643243 20.3151574,-4.54747351e-13 45.4016439,-4.54747351e-13 C45.4262385,-4.54747351e-13 45.4508331,-4.54747351e-13 45.4754277,-4.54747351e-13 C45.9673196,-4.54747351e-13 46.3854277,0.393513514 46.3854277,0.91 C46.3854277,0.91 46.3854277,0.91 46.3854277,0.91 C46.3854277,1.40189189 45.9919141,1.79540541 45.5000223,1.79540541 C45.5000223,1.79540541 45.4754277,1.79540541 45.4754277,1.79540541 C21.3481304,1.79540541 1.79542766,21.3481081 1.77083307,45.4754054 C1.77083307,57.0594595 6.37002225,68.1762162 14.5600223,76.3662162 C31.6286709,93.4348649 59.2975898,93.4348649 76.3416439,76.3662162 C93.4102925,59.2975676 93.3856979,31.6040541 76.3170493,14.56 C73.119752,11.3627027 69.4305628,8.6572973 65.3724547,6.59135135 C64.929752,6.37 64.7575898,5.82891892 64.9789412,5.38621622 C65.2002925,4.94351351 65.7413736,4.77135135 66.1840763,4.9927027 L66.1840763,4.9927027 L66.1840763,4.9927027 C81.3835358,12.7645946 90.9508331,28.4313514 90.9508331,45.5 C90.9508331,70.6110811 70.5865087,90.9754054 45.4754277,90.9754054 Z" id="Path" stroke-width="1" fill="#3C4957" fill-rule="nonzero"></path>
                        <path d="M62.7162385,3.86135135 C62.7162385,4.50081081 62.199752,4.9927027 61.5602925,4.9927027 C60.9208331,4.9927027 60.4289412,4.47621622 60.4289412,3.83675676 C60.4289412,3.22189189 60.9454277,2.70540541 61.5602925,2.70540541 C61.5602925,2.70540541 61.5848871,2.70540541 61.5848871,2.70540541 C62.2243466,2.70540541 62.7162385,3.22189189 62.7162385,3.86135135 Z" id="Path" stroke-width="1" fill="#3C4957" fill-rule="nonzero"></path>
                    </g>
                </g>
            </g>
        </g>
    </g>
</svg>