<?xml version="1.0" encoding="UTF-8"?>
<svg width="72px" height="72px" viewBox="0 0 72 72" version="1.1" xmlns="http://www.w3.org/2000/svg" xmlns:xlink="http://www.w3.org/1999/xlink">
    <!-- Generator: Sketch 55 (78076) - https://sketchapp.com -->
    <title>Round</title>
    <desc>Created with Sketch.</desc>
    <g id="Page-1" stroke="none" stroke-width="1" fill="none" fill-rule="evenodd">
        <g id="PageIntermédiaire" transform="translate(-355.000000, -1306.000000)">
            <g id="Round-2" transform="translate(355.000000, 1306.000000)">
                <g id="Round">
                    <g>
                        <g id="Group-2" fill="#2A3848">
                            <path d="M45.106195,2.80511939 C45.0396382,2.80612064 44.9732895,2.79714793 44.909191,2.77847743 C43.7150597,2.43857059 42.5044044,2.16493379 41.2823486,1.95872509 C41.0279151,1.91625904 40.814587,1.73581335 40.7227231,1.48536017 C40.6308592,1.23490699 40.6744158,0.952496111 40.8369854,0.74450898 C40.9995551,0.536521849 41.2564396,0.43455666 41.5108732,0.477022714 C42.7833192,0.688990746 44.0439709,0.971524804 45.2874386,1.32341701 C45.6369505,1.4229338 45.861166,1.77683993 45.8112477,2.15020756 C45.7613294,2.52357519 45.4527867,2.80040002 45.0904347,2.79692186 L45.106195,2.80511939 Z" id="Path" fill-rule="nonzero"></path>
                            <path d="M36.0034974,72 C21.4431041,71.9945356 8.31832897,63.2241085 2.74447628,49.7751756 C-2.8293764,36.3262428 0.244309653,20.8447872 10.5333937,10.5441751 C17.2736342,3.76858517 26.4455294,-0.0283606936 36.0034974,0.000159515108 C36.2580607,0.000159511315 36.4932868,0.135943552 36.6205684,0.356363102 C36.74785,0.576782653 36.74785,0.848350739 36.6205684,1.06877029 C36.4932868,1.28918984 36.2580607,1.42497388 36.0034974,1.42497388 C22.0153565,1.42156857 9.4028076,9.84407347 4.04803091,22.764441 C-1.30674578,35.6848085 1.65099681,50.5580737 11.5418408,60.4477142 C23.9668712,72.8683273 43.732154,73.9998839 57.493978,63.0784606 C71.2558021,52.1570374 74.6397884,32.6541539 65.361379,17.7363733 C62.045487,12.4154405 57.3495171,8.09227346 51.7726513,5.22642531 C51.422676,5.04636206 51.2849607,4.61673067 51.4650555,4.26681674 C51.6451503,3.91690281 52.0748571,3.77921161 52.4248324,3.95927483 C64.4462238,10.1259068 72.0043715,22.5009076 71.9999981,36.0098121 C71.9946249,55.8844183 55.8815897,71.9946278 36.0034974,72 L36.0034974,72 Z" id="Path" fill-rule="nonzero"></path>
                            <path d="M49.5584394,3.27473384 C49.5573318,3.79089328 49.1381997,4.20852926 48.6220396,4.20779123 C48.1058795,4.2070532 47.6879435,3.78822034 47.6883119,3.27205984 C47.6886804,2.75589934 48.1072138,2.33766353 48.6233745,2.33766234 C48.8717172,2.33766177 49.1098592,2.43645265 49.2852757,2.61224556 C49.4606922,2.78803848 49.5589723,3.02639172 49.5584394,3.27473384 Z" id="Path" fill-rule="nonzero"></path>
                        </g>
                        <g id="Light" transform="translate(20.160000, 18.720000)" stroke="#394958" stroke-linecap="round" stroke-linejoin="round">
                            <path d="M22.68,34.56 L15.0092739,26.5105123 C13.6288322,25.1267538 13.2854735,23.0002768 14.1588043,21.2434136 C14.8181555,19.929264 16.0580939,19.0133451 17.4952917,18.7788138 C18.9324895,18.5442826 20.3938322,19.0193888 21.4275447,20.0572533 L22.68,21.3163146 L23.9324553,20.0572533 C24.9661678,19.0193888 26.4275105,18.5442826 27.8647083,18.7788138 C29.3019061,19.0133451 30.5418445,19.929264 31.2011957,21.2434136 C32.0745265,23.0002768 31.7311678,25.1267538 30.3507261,26.5105123 L22.68,34.56 Z" id="Shape" stroke-width="2"></path>
                            <path d="M15.12,30.96 L15.12,32.0572754 C15.1177125,32.723328 14.8509272,33.3611916 14.3783346,33.8305415 C13.9057421,34.2998915 13.2660553,34.5622805 12.6,34.5599851 L12.6,34.5599851 C11.9339447,34.5622805 11.2942579,34.2998915 10.8216654,33.8305415 C10.3490728,33.3611916 10.0822875,32.723328 10.08,32.0572754 L10.08,31.679997" id="Shape" stroke-width="2"></path>
                            <path d="M30.24,15.84 C30.0094716,13.9774322 28.331873,12.6383966 26.46,12.8228571 C24.588127,12.6383966 22.9105284,13.9774322 22.68,15.84 C22.4494716,13.9774322 20.771873,12.6383966 18.9,12.8228571 C17.028127,12.6383966 15.3505284,13.9774322 15.12,15.84 C14.8894716,13.9774322 13.211873,12.6383966 11.34,12.8228571 C9.46812701,12.6383966 7.79052843,13.9774322 7.56,15.84 C7.32947157,13.9774322 5.65187299,12.6383966 3.78,12.8228571 C1.90812701,12.6383966 0.230528428,13.9774322 0,15.84 L0,15.0857143 C-2.01438866e-15,6.75410435 6.76945458,1.50736566e-15 15.12,0 C23.4705454,-1.50736566e-15 30.24,6.75410435 30.24,15.0857143 L30.24,15.84 Z" id="Shape" stroke-width="2"></path>
                            <path d="M7.95581556,15.84 C7.55532424,9.61300003 10.5345357,3.62750967 15.84,0" id="Shape" stroke-width="2"></path>
                            <path d="M23.0041844,15.84 C23.4046758,9.61300003 20.4254643,3.62750967 15.12,0" id="Shape" stroke-width="2"></path>
                            <path d="M15.12,0 L15.12,16.56" id="Shape" stroke-width="2"></path>
                        </g>
                    </g>
                </g>
            </g>
        </g>
    </g>
</svg>