<?xml version="1.0" encoding="UTF-8"?>
<svg width="93px" height="93px" viewBox="0 0 93 93" version="1.1" xmlns="http://www.w3.org/2000/svg" xmlns:xlink="http://www.w3.org/1999/xlink">
    <!-- Generator: Sketch 55 (78076) - https://sketchapp.com -->
    <title>Icone-EchangeSécurisés</title>
    <desc>Created with Sketch.</desc>
    <g id="Landing-MesDocteurs.com-UI-itération" stroke="none" stroke-width="1" fill="none" fill-rule="evenodd">
        <g id="MesDocteurs.com" transform="translate(-662.000000, -1390.000000)">
            <g id="Notre-Approche" transform="translate(245.000000, 943.000000)">
                <g id="Icone-EchangeSécurisés" transform="translate(418.000000, 448.000000)">
                    <g id="Securuté" transform="translate(24.000000, 24.500000)" stroke="#263444" stroke-linecap="round" stroke-linejoin="round" stroke-width="2">
                        <path d="M0.956521739,0 L0.956521739,24.8181818" id="Path"></path>
                        <path d="M18.173913,0 L18.173913,24.8181818" id="Path"></path>
                        <path d="M23.9130435,0 L23.9130435,19.0909091" id="Path"></path>
                        <path d="M41.1304348,0 L41.1304348,15.2727273" id="Path"></path>
                        <path d="M6.69565217,8.59090909 L6.69565217,16.2272727" id="Path"></path>
                        <path d="M35.3913043,8.59090909 L35.3913043,14.3181818" id="Path"></path>
                        <path d="M12.4347826,5.72727273 L12.4347826,19.0909091" id="Path"></path>
                        <path d="M29.6521739,5.72727273 L29.6521739,15.2727273" id="Path"></path>
                        <path d="M29.6521739,28.6363636 L41.1304348,28.6363636 C42.7144348,28.6363636 44,29.8337455 44,31.3090909 L44,39.3272727 C44,40.8026182 42.7144348,42 41.1304348,42 L29.6521739,42 C28.0681739,42 26.7826087,40.8026182 26.7826087,39.3272727 L26.7826087,31.3090909 C26.7826087,29.8337455 28.0681739,28.6363636 29.6521739,28.6363636 Z" id="Path"></path>
                        <path d="M35.3913043,20.0454545 C32.2213913,20.0454545 29.6521739,22.3244848 29.6521739,25.1363636 L29.6521739,27.6818182 L41.1304348,27.6818182 L41.1304348,25.1363636 C41.1304348,22.3244848 38.5612174,20.0454545 35.3913043,20.0454545 Z" id="Path"></path>
                        <path d="M36.3478261,35.3181818 C36.3478261,35.8450909 35.9193043,36.2727273 35.3913043,36.2727273 C34.8633043,36.2727273 34.4347826,35.8450909 34.4347826,35.3181818 C34.4347826,34.7912727 34.8633043,34.3636364 35.3913043,34.3636364 C35.9193043,34.3636364 36.3478261,34.7912727 36.3478261,35.3181818 Z" id="Path"></path>
                    </g>
                    <path d="M57.1824547,3.34486486 C57.1086709,3.34486486 57.0102925,3.34486486 56.9365087,3.32027027 C55.4362385,2.90216216 53.9359682,2.58243243 52.4111033,2.33648649 C51.9192114,2.2627027 51.5994817,1.82 51.6732655,1.3527027 C51.6732655,1.32810811 51.6732655,1.32810811 51.6732655,1.30351351 C51.7470493,0.811621622 52.2143466,0.491891892 52.6816439,0.565675676 C52.6816439,0.565675676 52.6816439,0.565675676 52.7062385,0.565675676 C54.3048871,0.811621622 55.8789412,1.15594595 57.4284006,1.57405405 C57.8956979,1.69702703 58.1908331,2.18891892 58.0678601,2.68081081 C57.9448871,3.07432432 57.6005628,3.34486486 57.1824547,3.34486486 Z" id="Path" stroke="#3C4957" stroke-width="1" fill="#3C4957" fill-rule="nonzero"></path>
                    <path d="M45.4754277,90.9754054 C20.339752,90.9754054 -0.0245723403,70.5864865 2.22542673e-05,45.4508108 C2.22542673e-05,20.3643243 20.3151574,-4.54747351e-13 45.4016439,-4.54747351e-13 C45.4262385,-4.54747351e-13 45.4508331,-4.54747351e-13 45.4754277,-4.54747351e-13 C45.9673196,-4.54747351e-13 46.3854277,0.393513514 46.3854277,0.91 C46.3854277,0.91 46.3854277,0.91 46.3854277,0.91 C46.3854277,1.40189189 45.9919141,1.79540541 45.5000223,1.79540541 C45.5000223,1.79540541 45.4754277,1.79540541 45.4754277,1.79540541 C21.3481304,1.79540541 1.79542766,21.3481081 1.77083307,45.4754054 C1.77083307,57.0594595 6.37002225,68.1762162 14.5600223,76.3662162 C31.6286709,93.4348649 59.2975898,93.4348649 76.3416439,76.3662162 C93.4102925,59.2975676 93.3856979,31.6040541 76.3170493,14.56 C73.119752,11.3627027 69.4305628,8.6572973 65.3724547,6.59135135 C64.929752,6.37 64.7575898,5.82891892 64.9789412,5.38621622 C65.2002925,4.94351351 65.7413736,4.77135135 66.1840763,4.9927027 L66.1840763,4.9927027 L66.1840763,4.9927027 C81.3835358,12.7645946 90.9508331,28.4313514 90.9508331,45.5 C90.9508331,70.6110811 70.5865087,90.9754054 45.4754277,90.9754054 Z" id="Path" stroke="#3C4957" stroke-width="1" fill="#3C4957" fill-rule="nonzero"></path>
                    <path d="M62.7162385,3.86135135 C62.7162385,4.50081081 62.199752,4.9927027 61.5602925,4.9927027 C60.9208331,4.9927027 60.4289412,4.47621622 60.4289412,3.83675676 C60.4289412,3.22189189 60.9454277,2.70540541 61.5602925,2.70540541 C61.5602925,2.70540541 61.5848871,2.70540541 61.5848871,2.70540541 C62.2243466,2.70540541 62.7162385,3.22189189 62.7162385,3.86135135 Z" id="Path" stroke="#3C4957" stroke-width="1" fill="#3C4957" fill-rule="nonzero"></path>
                </g>
            </g>
        </g>
    </g>
</svg>