<?xml version="1.0" encoding="utf-8"?>
<!-- Generator: Adobe Illustrator 24.2.2, SVG Export Plug-In . SVG Version: 6.00 Build 0)  -->
<svg version="1.1" id="Calque_1" xmlns="http://www.w3.org/2000/svg" xmlns:xlink="http://www.w3.org/1999/xlink" x="0px" y="0px"
	 viewBox="0 0 113.4 31.2" style="enable-background:new 0 0 113.4 31.2;" xml:space="preserve">
<style type="text/css">
	.st0{fill:#FDC53C;}
	.st1{fill:#CED3D4;}
	.st2{fill:#253545;}
	.st3{fill:#273545;}
	.st4{fill:#D1AB43;}
	.st5{fill:#283545;}
	.st6{fill:#31B5B0;}
	.st7{fill:#EA591D;}
	.st8{opacity:0.56;fill:#B3AC9D;enable-background:new    ;}
	.st9{fill:#FFFFFF;}
	.st10{fill:#E8327E;}
	.st11{opacity:0.32;fill:#2E2E2E;}
</style>
<g id="Illustration_13_1_">
	<g>
		<polygon class="st10" points="6.9,2.5 4.5,2.5 4.5,5.8 0.9,5.8 0.9,8 4.5,8 4.5,11.5 6.9,11.5 6.9,8 10.4,8 10.4,5.8 6.9,5.8 		
			"/>
		<polygon class="st11" points="4.4,8 6.8,8 6.8,9.2 		"/>
	</g>
	<g>
		<path class="st3" d="M15.8,22.2c-0.2,0.3-0.4,0.3-0.6,0.3c-0.2,0-0.4-0.1-0.5-0.3l-1.9-3.7v7.1c0,0.3-0.4,0.5-0.8,0.5
			c-0.4,0-0.8-0.2-0.8-0.5v-9.3c0-0.6,0.4-0.8,0.8-0.8c0.5,0,0.8,0.2,1.2,0.9l2,3.8l2-3.8c0.4-0.7,0.6-0.9,1.2-0.9
			c0.4,0,0.8,0.2,0.8,0.8v9.3c0,0.3-0.4,0.5-0.8,0.5c-0.4,0-0.8-0.2-0.8-0.5v-7L15.8,22.2z"/>
		<path class="st3" d="M26.3,21.8c0,1.2-0.7,1.2-1.3,1.2h-3v0.3c0,1,0.8,1.6,1.9,1.6c1,0,1.4-0.6,1.7-0.6c0.4,0,0.6,0.4,0.6,0.7
			c0,0.4-0.9,1.1-2.4,1.1c-1.9,0-3.3-1.2-3.3-2.9v-1.4c0-1.5,1.3-2.8,3-2.8C25,19.1,26.3,20.2,26.3,21.8z M24.3,22.1
			c0.4,0,0.5-0.1,0.5-0.4c0-0.8-0.6-1.4-1.4-1.4c-0.8,0-1.5,0.6-1.5,1.4v0.5H24.3z"/>
		<path class="st3" d="M30.6,24.2c0-1.5-3.4-0.6-3.4-3c0-1,0.6-2.1,2.4-2.1c1.1,0,2.1,0.4,2.1,0.9c0,0.2-0.2,0.7-0.6,0.7
			c-0.3,0-0.7-0.4-1.5-0.4c-0.8,0-1.2,0.5-1.2,0.8c0,1.3,3.5,0.4,3.5,3c0,1.2-0.9,2-2.5,2c-1.4,0-2.4-0.6-2.4-1.2
			c0-0.3,0.2-0.7,0.5-0.7c0.4,0,0.7,0.7,1.9,0.7C30.3,25,30.6,24.6,30.6,24.2z"/>
		<path class="st3" d="M37.5,23.3c0-2.6-4.6-1.6-4.6-5.1c0-2.1,1.8-2.8,3.3-2.8c0.9,0,2.6,0.2,2.6,1c0,0.3-0.2,0.8-0.6,0.8
			c-0.4,0-0.8-0.6-2-0.6c-1,0-1.8,0.4-1.8,1.3c0,2.1,4.6,1.2,4.6,5c0,2.1-1.4,3.1-3.2,3.1c-1.9,0-3.1-1-3.1-1.7
			c0-0.3,0.3-0.8,0.7-0.8c0.5,0,0.9,1.1,2.4,1.1C36.7,24.8,37.5,24.3,37.5,23.3z"/>
		<path class="st3" d="M45.1,21.9v3.6c0,0.3-0.3,0.5-0.7,0.5c-0.4,0-0.7-0.2-0.7-0.5v-0.5c-0.5,0.6-1.2,1.1-2.2,1.1
			c-1,0-1.9-0.6-1.9-1.9c0-1.6,1.4-2.1,3.3-2.1h0.6v-0.3c0-0.7-0.4-1.6-1.4-1.6c-1,0-1.3,0.4-1.6,0.4c-0.4,0-0.5-0.4-0.5-0.8
			c0-0.5,1.2-0.9,2.1-0.9C44.3,19.1,45.1,20.5,45.1,21.9z M43.6,23.1h-0.4c-1.1,0-2.1,0.1-2.1,1c0,0.7,0.4,0.9,0.9,0.9
			c0.7,0,1.5-0.8,1.5-1.5V23.1z"/>
		<path class="st3" d="M48,24.1c-0.1,0.1-0.3,0.2-0.3,0.4c0,1.1,4.3-0.1,4.3,2.6c0,1.5-1.4,2.2-3,2.2c-1.7,0-3-0.7-3-2
			c0-0.8,0.5-1.3,1.1-1.6c-0.4-0.2-0.7-0.4-0.7-1c0-0.5,0.3-0.8,0.7-1.1c-0.5-0.4-0.8-1.1-0.8-1.8v-0.4c0-1.4,1.1-2.4,2.6-2.4
			c0.7,0,1.2,0.2,1.7,0.5c0.3-0.7,0.6-1,0.9-1c0.4,0,0.6,0.3,0.6,0.5c0,0.2-0.1,0.3-0.2,0.4c-0.2,0.1-0.5,0.2-0.7,0.6
			c0.3,0.4,0.5,0.9,0.5,1.4v0.4c0,1.4-1.1,2.4-2.7,2.4C48.6,24.3,48.2,24.3,48,24.1z M48.4,26.1c-0.5,0.2-1,0.6-1,1.1
			c0,0.7,0.7,1.1,1.6,1.1c0.9,0,1.6-0.4,1.6-1.1C50.6,26.2,49.3,26.2,48.4,26.1z M50.2,21.5c0-0.8-0.4-1.4-1.2-1.4
			c-0.8,0-1.2,0.6-1.2,1.4v0.4c0,0.8,0.4,1.5,1.2,1.5c0.8,0,1.2-0.6,1.2-1.4V21.5z"/>
		<path class="st3" d="M58.5,21.8c0,1.2-0.7,1.2-1.3,1.2h-3v0.3c0,1,0.8,1.6,1.9,1.6c1,0,1.4-0.6,1.7-0.6c0.4,0,0.6,0.4,0.6,0.7
			c0,0.4-0.9,1.1-2.4,1.1c-1.9,0-3.3-1.2-3.3-2.9v-1.4c0-1.5,1.3-2.8,3-2.8C57.2,19.1,58.5,20.2,58.5,21.8z M56.6,22.1
			c0.4,0,0.5-0.1,0.5-0.4c0-0.8-0.6-1.4-1.4-1.4c-0.8,0-1.5,0.6-1.5,1.4v0.5H56.6z"/>
		<path class="st3" d="M62.8,24.2c0-1.5-3.4-0.6-3.4-3c0-1,0.6-2.1,2.4-2.1c1.1,0,2.1,0.4,2.1,0.9c0,0.2-0.2,0.7-0.6,0.7
			c-0.3,0-0.7-0.4-1.5-0.4c-0.8,0-1.2,0.5-1.2,0.8c0,1.3,3.5,0.4,3.5,3c0,1.2-0.9,2-2.5,2c-1.4,0-2.4-0.6-2.4-1.2
			c0-0.3,0.2-0.7,0.5-0.7c0.4,0,0.7,0.7,1.9,0.7C62.5,25,62.8,24.6,62.8,24.2z"/>
		<path class="st3" d="M65.3,16c0-0.3,0.3-0.5,0.7-0.5h5c0.3,0,0.5,0.3,0.5,0.7c0,0.4-0.2,0.7-0.5,0.7h-4.2v3.3H69
			c0.3,0,0.5,0.3,0.5,0.6c0,0.3-0.1,0.6-0.5,0.6h-2.2v4.2c0,0.3-0.4,0.5-0.8,0.5c-0.4,0-0.8-0.2-0.8-0.5V16z"/>
		<path class="st3" d="M76.3,21.8c0,1.2-0.7,1.2-1.3,1.2h-3v0.3c0,1,0.8,1.6,1.9,1.6c1,0,1.4-0.6,1.7-0.6c0.4,0,0.6,0.4,0.6,0.7
			c0,0.4-0.9,1.1-2.4,1.1c-1.9,0-3.3-1.2-3.3-2.9v-1.4c0-1.5,1.3-2.8,3-2.8C75,19.1,76.3,20.2,76.3,21.8z M74.3,22.1
			c0.4,0,0.5-0.1,0.5-0.4c0-0.8-0.6-1.4-1.4-1.4c-0.8,0-1.5,0.6-1.5,1.4v0.5H74.3z"/>
		<path class="st3" d="M81.5,22c0-0.9-0.6-1.5-1.3-1.5c-0.7,0-1.3,0.5-1.3,1.5v3.6c0,0.2-0.4,0.5-0.8,0.5c-0.4,0-0.7-0.3-0.7-0.5
			v-5.9c0-0.3,0.3-0.5,0.7-0.5c0.4,0,0.7,0.2,0.7,0.5v0.5c0.3-0.6,0.9-1.1,1.9-1.1c0.9,0,1.5,0.6,1.9,1.5c0.5-1,1.3-1.5,2.1-1.5
			c1.3,0,2.5,1,2.5,2.9v3.6c0,0.2-0.3,0.5-0.8,0.5c-0.4,0-0.7-0.3-0.7-0.5V22c0-1-0.7-1.5-1.3-1.5c-0.7,0-1.3,0.6-1.3,1.5v3.6
			c0,0.3-0.4,0.5-0.8,0.5c-0.3,0-0.7-0.1-0.7-0.5V22z"/>
		<path class="st3" d="M92.6,22c0-0.9-0.6-1.5-1.3-1.5C90.7,20.5,90,21,90,22v3.6c0,0.2-0.4,0.5-0.8,0.5c-0.4,0-0.7-0.3-0.7-0.5
			v-5.9c0-0.3,0.3-0.5,0.7-0.5c0.4,0,0.7,0.2,0.7,0.5v0.5c0.3-0.6,0.9-1.1,1.9-1.1c0.9,0,1.5,0.6,1.9,1.5c0.5-1,1.3-1.5,2.1-1.5
			c1.3,0,2.5,1,2.5,2.9v3.6c0,0.2-0.3,0.5-0.8,0.5c-0.4,0-0.7-0.3-0.7-0.5V22c0-1-0.7-1.5-1.3-1.5c-0.7,0-1.3,0.6-1.3,1.5v3.6
			c0,0.3-0.4,0.5-0.8,0.5c-0.3,0-0.7-0.1-0.7-0.5V22z"/>
		<path class="st3" d="M105.2,21.8c0,1.2-0.7,1.2-1.3,1.2h-3v0.3c0,1,0.8,1.6,1.9,1.6c1,0,1.4-0.6,1.7-0.6c0.4,0,0.6,0.4,0.6,0.7
			c0,0.4-0.9,1.1-2.4,1.1c-1.9,0-3.3-1.2-3.3-2.9v-1.4c0-1.5,1.3-2.8,3-2.8C103.9,19.1,105.2,20.2,105.2,21.8z M103.3,22.1
			c0.4,0,0.5-0.1,0.5-0.4c0-0.8-0.6-1.4-1.4-1.4c-0.8,0-1.5,0.6-1.5,1.4v0.5H103.3z"/>
		<path class="st3" d="M109.5,24.2c0-1.5-3.4-0.6-3.4-3c0-1,0.6-2.1,2.4-2.1c1.1,0,2.1,0.4,2.1,0.9c0,0.2-0.2,0.7-0.6,0.7
			c-0.3,0-0.7-0.4-1.5-0.4c-0.8,0-1.2,0.5-1.2,0.8c0,1.3,3.5,0.4,3.5,3c0,1.2-0.9,2-2.5,2c-1.4,0-2.4-0.6-2.4-1.2
			c0-0.3,0.2-0.7,0.5-0.7c0.4,0,0.7,0.7,1.9,0.7C109.2,25,109.5,24.6,109.5,24.2z"/>
	</g>
</g>
</svg>
