<?xml version="1.0" encoding="utf-8"?>
<!-- Generator: Adobe Illustrator 23.1.1, SVG Export Plug-In . SVG Version: 6.00 Build 0)  -->
<svg version="1.1" id="Calque_1" xmlns="http://www.w3.org/2000/svg" xmlns:xlink="http://www.w3.org/1999/xlink" x="0px" y="0px"
	 viewBox="0 0 25 25" style="enable-background:new 0 0 25 25;" xml:space="preserve">
<style type="text/css">
	.st0{fill:none;stroke:#FFFFFF;stroke-linecap:round;stroke-linejoin:round;}
</style>
<title>Mail</title>
<desc>Created with Sketch.</desc>
<g id="Symbols">
	<g id="ChipQuestion" transform="translate(-21.000000, -6.000000)">
		<g id="Mail" transform="translate(22.000000, 7.000000)">
			<g id="Group-9">
				<path id="Stroke-1" class="st0" d="M4.8,0.2h16.5c0.8,0,1.5,0.7,1.5,1.5v16.5c0,0.8-0.7,1.5-1.5,1.5H4.8c-0.8,0-1.5-0.7-1.5-1.5
					V1.7C3.2,0.9,3.9,0.2,4.8,0.2z"/>
				<path id="Stroke-3" class="st0" d="M19.8,22.8h-18c-0.8,0-1.5-0.7-1.5-1.5v-18"/>
				<path id="Stroke-5" class="st0" d="M18.2,7.7v6c0,0.8-0.7,1.5-1.5,1.5H9.2c-0.8,0-1.5-0.7-1.5-1.5v-6"/>
				<path id="Stroke-7" class="st0" d="M18.2,7.7c0-0.8-0.7-1.5-1.5-1.5H9.2c-0.8,0-1.5,0.7-1.5,1.5l4.5,2.8c0.5,0.3,1.1,0.3,1.6,0
					L18.2,7.7z"/>
			</g>
		</g>
	</g>
</g>
</svg>
