<svg id="Calque_1" data-name="Calque 1" xmlns="http://www.w3.org/2000/svg" viewBox="0 0 329.04 87.29"><defs><style>.cls-1{fill:#ffc20e;}</style></defs><path d="M45.4,84.64V46.5a2.93,2.93,0,0,1,.89-2.37,3.3,3.3,0,0,1,2.25-.77,5,5,0,0,1,2.82.74,7.46,7.46,0,0,1,2.15,2.82l8.31,15.71,8.42-15.71A7.67,7.67,0,0,1,72.4,44.1a4.87,4.87,0,0,1,2.78-.74,3.28,3.28,0,0,1,2.26.77,3,3,0,0,1,.89,2.37V84.64a1.7,1.7,0,0,1-.92,1.51,4.62,4.62,0,0,1-4.42,0,1.71,1.71,0,0,1-1-1.51V56.21L64.05,70.92a2.63,2.63,0,0,1-2.32,1.42,2.27,2.27,0,0,1-2.13-1.42l-8-15.07V84.68a1.68,1.68,0,0,1-.92,1.51,4.62,4.62,0,0,1-4.42,0,1.69,1.69,0,0,1-.94-1.51" transform="translate(0 0)"/><path d="M75.17,43.36a4.87,4.87,0,0,0-2.78.74,7.51,7.51,0,0,0-2.14,2.82L61.83,62.63l-8.3-15.71A7.67,7.67,0,0,0,51.4,44.1a5,5,0,0,0-2.82-.74,3.32,3.32,0,0,0-2.26.77,3,3,0,0,0-.92,2.37V84.64a1.7,1.7,0,0,0,.94,1.51,4.62,4.62,0,0,0,4.42,0,1.68,1.68,0,0,0,.92-1.51V55.81l8,15.07a2.27,2.27,0,0,0,2.13,1.42,2.65,2.65,0,0,0,2.32-1.42l8-14.67V84.68a1.72,1.72,0,0,0,1,1.51,4.62,4.62,0,0,0,4.42,0,1.7,1.7,0,0,0,.92-1.51V46.5a3,3,0,0,0-.89-2.37,3.33,3.33,0,0,0-2.13-.78h-.13" transform="translate(0 0)"/><path d="M88.88,70.36h9.85a3,3,0,0,0,1.75-.35,1.72,1.72,0,0,0,.44-1.4,5.27,5.27,0,0,0-1.72-4A5.94,5.94,0,0,0,94.93,63a6.25,6.25,0,0,0-4.27,1.55,5,5,0,0,0-1.78,3.93Zm-6.23,5V69.72a10.78,10.78,0,0,1,3.62-8.09A12.3,12.3,0,0,1,95,58.21a12.14,12.14,0,0,1,8.34,3.09,10,10,0,0,1,3.46,7.79,8.84,8.84,0,0,1-.41,2.93,2.75,2.75,0,0,1-1.31,1.57,5.26,5.26,0,0,1-1.67.62,13.34,13.34,0,0,1-2,.12H88.88V75.7A5.86,5.86,0,0,0,91,80.46a8.47,8.47,0,0,0,5.57,1.76,9.85,9.85,0,0,0,4.6-1.14A9.79,9.79,0,0,1,103.83,80a2.09,2.09,0,0,1,1.72,1,3.12,3.12,0,0,1,.71,1.85q0,1.45-2.85,3a14.49,14.49,0,0,1-7,1.48A14.83,14.83,0,0,1,86.5,84a10.64,10.64,0,0,1-3.85-8.54" transform="translate(0 0)"/><path d="M99.2,64.64a5.27,5.27,0,0,1,1.72,4,1.72,1.72,0,0,1-.44,1.4,3,3,0,0,1-1.75.35H88.88V68.52a5,5,0,0,1,1.78-3.94A6.29,6.29,0,0,1,94.93,63a5.94,5.94,0,0,1,4.27,1.63m-12.93-3a10.78,10.78,0,0,0-3.62,8.09V75.4a10.64,10.64,0,0,0,3.85,8.54,14.8,14.8,0,0,0,9.9,3.27,14.6,14.6,0,0,0,7-1.48q2.85-1.5,2.85-3a3.12,3.12,0,0,0-.71-1.84,2.13,2.13,0,0,0-1.72-1A9.79,9.79,0,0,0,101.18,81a9.85,9.85,0,0,1-4.6,1.14A8.47,8.47,0,0,1,91,80.4a5.86,5.86,0,0,1-2.14-4.76V74.27H101.4a13.34,13.34,0,0,0,2-.12,5.75,5.75,0,0,0,1.66-.58A2.65,2.65,0,0,0,106.37,72a8.84,8.84,0,0,0,.41-2.93,10,10,0,0,0-3.46-7.79A12.14,12.14,0,0,0,95,58.19a12.3,12.3,0,0,0-8.72,3.42" transform="translate(0 0)"/><path d="M108.57,82.45a3.31,3.31,0,0,1,.63-1.84,1.8,1.8,0,0,1,1.53-1,2.86,2.86,0,0,1,1.48.69,13.42,13.42,0,0,0,2.58,1.4,9.79,9.79,0,0,0,3.89.7c3.39,0,5.09-1.08,5.09-3.22a3.1,3.1,0,0,0-1.49-2.73,11.84,11.84,0,0,0-3.6-1.54c-1.4-.38-2.79-.81-4.18-1.29A8,8,0,0,1,111,71.18a6.62,6.62,0,0,1-1.49-4.48,8.2,8.2,0,0,1,2.49-6q2.44-2.49,7.65-2.49a17.58,17.58,0,0,1,6.14,1q2.76,1,2.76,2.46a3.85,3.85,0,0,1-.69,1.93,2,2,0,0,1-1.68,1.1,12.51,12.51,0,0,1-2.44-.89,10,10,0,0,0-4-.89A5.32,5.32,0,0,0,116.1,64a3.19,3.19,0,0,0-1.21,2.39,2.53,2.53,0,0,0,1.48,2.27A14.29,14.29,0,0,0,120,70a38.91,38.91,0,0,1,4.22,1.32,7.69,7.69,0,0,1,5,7.57,7.29,7.29,0,0,1-2.72,6q-2.71,2.3-7.69,2.3a16,16,0,0,1-7.21-1.49c-2-1-3-2.07-3-3.25" transform="translate(0 0)"/><path d="M119.6,58.21q-5.17,0-7.65,2.52a8.2,8.2,0,0,0-2.49,6,6.68,6.68,0,0,0,1.48,4.48,8.08,8.08,0,0,0,3.56,2.44c1.39.48,2.78.91,4.19,1.29a11.78,11.78,0,0,1,3.59,1.54,3.1,3.1,0,0,1,1.49,2.73c0,2.14-1.7,3.22-5.08,3.22a9.84,9.84,0,0,1-3.9-.7,13.42,13.42,0,0,1-2.58-1.4,2.86,2.86,0,0,0-1.48-.69,1.8,1.8,0,0,0-1.53,1,3.31,3.31,0,0,0-.63,1.84q0,1.77,3,3.25a16.09,16.09,0,0,0,7.23,1.48q5,0,7.71-2.18a7.36,7.36,0,0,0,2.72-6,7.69,7.69,0,0,0-5-7.57A38.91,38.91,0,0,0,120,70.14a14.29,14.29,0,0,1-3.62-1.37,2.53,2.53,0,0,1-1.48-2.27,3.15,3.15,0,0,1,1.21-2.39A5.32,5.32,0,0,1,119.71,63a10.22,10.22,0,0,1,4,.89,12.1,12.1,0,0,0,2.42.89,2,2,0,0,0,1.7-1.1,3.84,3.84,0,0,0,.68-1.93q0-1.41-2.76-2.46a17.29,17.29,0,0,0-5.92-1h-.22" transform="translate(0 0)"/><path d="M140.24,81.14h7q7,0,7.06-7.65V56.59q0-7.67-7.06-7.66h-7ZM134,84.7V45.38a1.76,1.76,0,0,1,.81-1.43,3.18,3.18,0,0,1,2-.59h10.49q6.06,0,9.7,3.2t3.65,10v16.9q0,6.83-3.65,10t-9.69,3.2h-10.5a3.25,3.25,0,0,1-2-.59,1.75,1.75,0,0,1-.81-1.42" transform="translate(0 0)"/><path d="M140.24,48.93h7q7,0,7.06,7.65V73.49q0,7.65-7.06,7.65h-7Zm-5.48-5a1.76,1.76,0,0,0-.81,1.43V84.68a1.75,1.75,0,0,0,.81,1.42,3.25,3.25,0,0,0,2,.59h10.5a14.28,14.28,0,0,0,9.69-3.2q3.69-3.19,3.65-10V56.58q0-6.82-3.65-10t-9.7-3.2h-10.6a3.29,3.29,0,0,0-1.87.59" transform="translate(0 0)"/><path d="M170.91,75.37a6.17,6.17,0,0,0,1.79,4.33,5.67,5.67,0,0,0,8,.51A7.07,7.07,0,0,0,183,75.37V70a6,6,0,0,0-1.81-4.24,5.73,5.73,0,0,0-8.09-.42,4.16,4.16,0,0,0-.42.42A6,6,0,0,0,170.91,70Zm-6.23,0V69.92a11,11,0,0,1,3.62-8.18,12.44,12.44,0,0,1,17.27,0,11,11,0,0,1,3.68,8.21v5.45a11.1,11.1,0,0,1-3.72,8.22,12.1,12.1,0,0,1-17.11.06l-.06-.06a11.14,11.14,0,0,1-3.68-8.25" transform="translate(0 0)"/><path d="M172.7,79.7a6.12,6.12,0,0,1-1.79-4.33V70a6,6,0,0,1,1.79-4.24,5.73,5.73,0,0,1,8.09-.42,4.16,4.16,0,0,1,.42.42A6,6,0,0,1,183,70v5.42a6.17,6.17,0,0,1-1.81,4.33A5.65,5.65,0,0,1,177,81.62h0a5.63,5.63,0,0,1-4.23-1.92m-4.4-17.94a11,11,0,0,0-3.62,8.18v5.45a11.14,11.14,0,0,0,3.68,8.25,12.1,12.1,0,0,0,17.11.06l.06-.06a11.1,11.1,0,0,0,3.72-8.22V70a11,11,0,0,0-3.68-8.21,12.14,12.14,0,0,0-8.6-3.47h-.2a12,12,0,0,0-8.47,3.5" transform="translate(0 0)"/><path d="M192.27,75.39V70.05a12,12,0,0,1,3.13-8.54q3-3.3,9.15-3.3A14.13,14.13,0,0,1,211,59.55q2.61,1.34,2.61,3a3.33,3.33,0,0,1-.74,2,2.13,2.13,0,0,1-1.75,1,9.47,9.47,0,0,1-2.1-.89,9.09,9.09,0,0,0-4-.89q-6.54,0-6.53,6.24v5.31q0,6.24,6.58,6.25a8.73,8.73,0,0,0,4.07-.95,8.16,8.16,0,0,1,2.16-1,2.3,2.3,0,0,1,1.93,1,3.18,3.18,0,0,1,.74,2c0,1.11-.91,2.14-2.72,3.09a14.29,14.29,0,0,1-6.65,1.42q-6.17,0-9.25-3.23a11.87,11.87,0,0,1-3.09-8.57" transform="translate(0 0)"/><path d="M195.4,61.51a11.9,11.9,0,0,0-3.09,8.54v5.34A11.87,11.87,0,0,0,195.4,84q3.09,3.23,9.25,3.23a14.25,14.25,0,0,0,6.64-1.42Q214,84.35,214,82.68a3.18,3.18,0,0,0-.74-2,2.35,2.35,0,0,0-1.93-1,8.56,8.56,0,0,0-2.17,1,8.69,8.69,0,0,1-4.06.95q-6.59,0-6.58-6.25V70.07q0-6.24,6.52-6.24a9.09,9.09,0,0,1,4,.89,9.47,9.47,0,0,0,2.1.89,2.15,2.15,0,0,0,1.75-1,3.33,3.33,0,0,0,.74-2q0-1.65-2.61-3a14.13,14.13,0,0,0-6.46-1.34q-6.11,0-9.19,3.27" transform="translate(0 0)"/><path d="M216.93,77.46V47.75a1.7,1.7,0,0,1,1-1.43,4,4,0,0,1,2.14-.59,4.11,4.11,0,0,1,2.16.59,1.72,1.72,0,0,1,1,1.43V58.6h7.17a1.48,1.48,0,0,1,1.24.68,3.07,3.07,0,0,1,0,3.27,1.5,1.5,0,0,1-1.24.66h-7.24V77.44a4.13,4.13,0,0,0,.92,3,4.64,4.64,0,0,0,3.22.89h2.1a2.54,2.54,0,0,1,2,.77,2.9,2.9,0,0,1,0,3.79,2.54,2.54,0,0,1-2,.77h-2.08q-10.38,0-10.38-9.25" transform="translate(0 0)"/><path d="M217.88,46.32a1.7,1.7,0,0,0-1,1.43V77.46q0,9.26,10.38,9.25h2.14a2.56,2.56,0,0,0,2-.76,2.89,2.89,0,0,0,0-3.8,2.54,2.54,0,0,0-2-.77h-2.08a4.58,4.58,0,0,1-3.22-.89,4.13,4.13,0,0,1-.92-3V63.21h7.22a1.47,1.47,0,0,0,1.24-.69,3,3,0,0,0,0-3.26,1.48,1.48,0,0,0-1.24-.68h-7.24V47.75a1.72,1.72,0,0,0-1-1.43,4.11,4.11,0,0,0-2.16-.59h-.06a4,4,0,0,0-2.08.59" transform="translate(0 0)"/><path d="M239.77,70.36h9.84a3,3,0,0,0,1.75-.35,1.72,1.72,0,0,0,.45-1.4,5.29,5.29,0,0,0-1.72-4A5.94,5.94,0,0,0,245.82,63a6.25,6.25,0,0,0-4.27,1.55,5,5,0,0,0-1.78,3.93Zm-6.23,5V69.72a10.78,10.78,0,0,1,3.62-8.09,12.26,12.26,0,0,1,8.72-3.42,12.1,12.1,0,0,1,8.33,3.09,10,10,0,0,1,3.47,7.79,8.56,8.56,0,0,1-.42,2.93,2.7,2.7,0,0,1-1.3,1.57,5.47,5.47,0,0,1-1.66.58,13.34,13.34,0,0,1-2,.12H239.77v1.37a5.87,5.87,0,0,0,2.13,4.76,8.5,8.5,0,0,0,5.58,1.76A9.78,9.78,0,0,0,252.07,81a10.12,10.12,0,0,1,2.64-1.13,2.09,2.09,0,0,1,1.72,1,3,3,0,0,1,.71,1.85c0,1-.95,2-2.84,3a14.49,14.49,0,0,1-7,1.48A14.78,14.78,0,0,1,237.39,84a10.57,10.57,0,0,1-3.85-8.54" transform="translate(0 0)"/><path d="M250.09,64.64a5.29,5.29,0,0,1,1.72,4,1.72,1.72,0,0,1-.45,1.4,3,3,0,0,1-1.75.35h-9.84V68.52a5,5,0,0,1,1.78-3.94A6.24,6.24,0,0,1,245.82,63a5.94,5.94,0,0,1,4.27,1.63m-12.93-3a10.78,10.78,0,0,0-3.62,8.09V75.4a10.57,10.57,0,0,0,3.85,8.54,16.91,16.91,0,0,0,16.91,1.78c1.89-1,2.84-2,2.84-3a3.12,3.12,0,0,0-.71-1.84,2.09,2.09,0,0,0-1.72-1A10.12,10.12,0,0,0,252.07,81a9.78,9.78,0,0,1-4.59,1.14,8.5,8.5,0,0,1-5.58-1.76,5.87,5.87,0,0,1-2.13-4.76V74.26h12.51a13.34,13.34,0,0,0,2-.12,5.75,5.75,0,0,0,1.66-.58,2.7,2.7,0,0,0,1.3-1.57,8.6,8.6,0,0,0,.42-2.93,10,10,0,0,0-3.47-7.79,12.1,12.1,0,0,0-8.33-3.09,12.26,12.26,0,0,0-8.72,3.42" transform="translate(0 0)"/><path d="M261,75.51V60.68a1.78,1.78,0,0,1,.95-1.46,4,4,0,0,1,2.19-.62,3.79,3.79,0,0,1,2.17.62,1.79,1.79,0,0,1,.92,1.45V75.46A6,6,0,0,0,269,79.72a5.74,5.74,0,0,0,8.51,0,6,6,0,0,0,1.78-4.29V60.61a1.7,1.7,0,0,1,.92-1.42,4.08,4.08,0,0,1,2.23-.59,3.78,3.78,0,0,1,2.17.59,1.73,1.73,0,0,1,.85,1.43V75.51a11,11,0,0,1-3.61,8.17,12.35,12.35,0,0,1-17.23,0A11,11,0,0,1,261,75.51" transform="translate(0 0)"/><path d="M282.48,58.6a4.08,4.08,0,0,0-2.23.59,1.7,1.7,0,0,0-.92,1.42V75.46a6.06,6.06,0,0,1-1.78,4.29,5.74,5.74,0,0,1-8.11.4,5,5,0,0,1-.4-.4,6,6,0,0,1-1.81-4.26V60.67a1.79,1.79,0,0,0-.92-1.45,3.76,3.76,0,0,0-2.16-.62,4,4,0,0,0-2.2.62,1.78,1.78,0,0,0-.95,1.46V75.51a11,11,0,0,0,3.65,8.17,12.36,12.36,0,0,0,17.24,0,11,11,0,0,0,3.61-8.17V60.62a1.7,1.7,0,0,0-.86-1.43,3.83,3.83,0,0,0-2-.59h-.14" transform="translate(0 0)"/><path d="M290.3,84.64v-24a1.73,1.73,0,0,1,.86-1.46,3.94,3.94,0,0,1,2.17-.56,3.53,3.53,0,0,1,2,.57,1.73,1.73,0,0,1,.83,1.47V63.3a9.41,9.41,0,0,1,3-3.57,7.6,7.6,0,0,1,4.48-1.47h1.89a2.21,2.21,0,0,1,1.67.81,2.92,2.92,0,0,1,.71,2,3,3,0,0,1-.71,2,2.14,2.14,0,0,1-1.67.84h-1.89a6.53,6.53,0,0,0-5,2.42,9,9,0,0,0-2.17,6.27V84.73a1.79,1.79,0,0,1-.95,1.42,3.91,3.91,0,0,1-2.25.65,3.5,3.5,0,0,1-2.17-.65,1.82,1.82,0,0,1-.86-1.42" transform="translate(0 0)"/><path d="M299.23,59.7a9.41,9.41,0,0,0-3.05,3.57V60.63a1.72,1.72,0,0,0-.84-1.47,3.45,3.45,0,0,0-2-.57,3.94,3.94,0,0,0-2.17.56,1.73,1.73,0,0,0-.86,1.46v24a1.82,1.82,0,0,0,.86,1.42,3.5,3.5,0,0,0,2.17.65,3.91,3.91,0,0,0,2.25-.65,1.79,1.79,0,0,0,1-1.42V72.51a9,9,0,0,1,2.16-6.3,6.57,6.57,0,0,1,5-2.42h1.9a2.13,2.13,0,0,0,1.66-.85,3,3,0,0,0,.71-2,2.83,2.83,0,0,0-.71-2,2.15,2.15,0,0,0-1.66-.82h-1.92a7.52,7.52,0,0,0-4.46,1.47" transform="translate(0 0)"/><path d="M308.4,82.45a3.29,3.29,0,0,1,.63-1.84,1.8,1.8,0,0,1,1.52-1,2.89,2.89,0,0,1,1.49.69,13,13,0,0,0,2.57,1.4,9.88,9.88,0,0,0,3.88.7c3.39,0,5.09-1.08,5.09-3.22a3.1,3.1,0,0,0-1.49-2.73,12.06,12.06,0,0,0-3.59-1.55c-1.4-.38-2.79-.81-4.18-1.29a8.08,8.08,0,0,1-3.56-2.44,6.68,6.68,0,0,1-1.48-4.48,8.15,8.15,0,0,1,2.48-6c1.64-1.62,4.2-2.48,7.64-2.48a17.23,17.23,0,0,1,6.16,1q2.78,1,2.76,2.46a3.75,3.75,0,0,1-.68,1.93A2,2,0,0,1,326,64.7a12.42,12.42,0,0,1-2.43-.89,10,10,0,0,0-4-.89A5.32,5.32,0,0,0,315.93,64a3.16,3.16,0,0,0-1.22,2.39,2.56,2.56,0,0,0,1.49,2.27A14.29,14.29,0,0,0,319.82,70,38.74,38.74,0,0,1,324,71.34a7.68,7.68,0,0,1,5,7.57,7.27,7.27,0,0,1-2.73,6q-2.7,2.3-7.68,2.3a16,16,0,0,1-7.21-1.49c-2-1-3-2.08-3-3.25" transform="translate(0 0)"/><path d="M319.4,58.21c-3.44,0-6,.83-7.65,2.51a8.15,8.15,0,0,0-2.48,6,6.68,6.68,0,0,0,1.48,4.48,8,8,0,0,0,3.56,2.44c1.38.48,2.78.91,4.18,1.29a12.06,12.06,0,0,1,3.59,1.55,3.1,3.1,0,0,1,1.49,2.73c0,2.14-1.7,3.22-5.09,3.22a9.88,9.88,0,0,1-3.88-.7,13,13,0,0,1-2.57-1.4,2.89,2.89,0,0,0-1.49-.69,1.8,1.8,0,0,0-1.52,1,3.29,3.29,0,0,0-.63,1.84q0,1.77,3,3.25a16,16,0,0,0,7.21,1.49q5,0,7.71-2.18a7,7,0,0,0,2.49-3.9V76.76a7.23,7.23,0,0,0-1.22-2.64,7.93,7.93,0,0,0-3.53-2.68,38.74,38.74,0,0,0-4.21-1.32,14.29,14.29,0,0,1-3.62-1.37,2.56,2.56,0,0,1-1.49-2.27A3.16,3.16,0,0,1,316,64.09,5.32,5.32,0,0,1,319.54,63a10.22,10.22,0,0,1,4,.89,12.42,12.42,0,0,0,2.43.89,2,2,0,0,0,1.69-1.1,3.75,3.75,0,0,0,.68-1.93q0-1.41-2.76-2.46a17.34,17.34,0,0,0-5.93-1h-.25" transform="translate(0 0)"/><polygon class="cls-1" points="19.7 0 19.7 17.83 0 17.83 0 30.03 19.7 30.03 19.7 48.79 32.84 48.79 32.84 30.03 51.6 30.03 51.6 17.83 32.84 17.83 32.84 0 19.7 0"/></svg>