<svg id="Calque_1" data-name="Calque 1" xmlns="http://www.w3.org/2000/svg" viewBox="0 0 850.4 850.4"><defs><style>.cls-1{fill:#d6e9ea;}.cls-1,.cls-10,.cls-13,.cls-14,.cls-22,.cls-24,.cls-26,.cls-27,.cls-8{fill-rule:evenodd;}.cls-2,.cls-21,.cls-23,.cls-35{fill:#f3f2f2;}.cls-10,.cls-11,.cls-17,.cls-18,.cls-2,.cls-20,.cls-21,.cls-23,.cls-24,.cls-25,.cls-26,.cls-29,.cls-3,.cls-4,.cls-6,.cls-7,.cls-8{stroke:#073544;}.cls-10,.cls-11,.cls-13,.cls-15,.cls-16,.cls-17,.cls-18,.cls-2,.cls-20,.cls-21,.cls-23,.cls-24,.cls-25,.cls-26,.cls-29,.cls-3,.cls-30,.cls-31,.cls-32,.cls-34,.cls-4,.cls-6,.cls-7,.cls-8{stroke-miterlimit:10;}.cls-2{stroke-width:1.27px;}.cls-18,.cls-26,.cls-3,.cls-31{fill:#fff;}.cls-13,.cls-4,.cls-8{fill:#b18b67;}.cls-5{fill:#263444;}.cls-6{fill:#e8edee;}.cls-7{fill:#c5cfd7;}.cls-9{fill:#05191e;}.cls-10,.cls-11{fill:#e4e4e3;}.cls-12,.cls-25,.cls-27{fill:#073544;}.cls-13,.cls-15,.cls-16,.cls-28,.cls-31{stroke:#263444;}.cls-14{fill:#d6c4bd;}.cls-15{fill:#e65348;}.cls-16{fill:#e34033;}.cls-17{fill:#ffc20e;}.cls-18,.cls-20,.cls-21,.cls-32,.cls-34{stroke-width:0.75px;}.cls-19,.cls-20,.cls-30,.cls-32{fill:none;}.cls-22{fill:#93c463;}.cls-24{fill:#cdaa62;}.cls-28{fill:#fdc53b;stroke-linejoin:round;}.cls-28,.cls-30,.cls-32{stroke-linecap:round;}.cls-29{fill:#9fd3cf;}.cls-30{stroke:#2eb5b0;stroke-width:5px;}.cls-32,.cls-34{stroke:#00bfb6;}.cls-33{fill:#3e4a58;}.cls-34{fill:#00bfb6;}</style></defs><title>Plan de travail 2</title><path class="cls-1" d="M65.42,527l1,254.5L785,778.56l-1-238s-119.13,61.18-290.53,43.29c-119.3-12.45-168.15-58-266.83-74.06C119.33,492.31,65.42,527,65.42,527"/><path class="cls-2" d="M128.38,69.09H547.09a10.37,10.37,0,0,1,10.44,10.36V509.32a10.37,10.37,0,0,1-10.44,10.36H128.38a10.37,10.37,0,0,1-10.44-10.36V79.45A10.28,10.28,0,0,1,128.38,69.09Z"/><path class="cls-3" d="M428.57,504.62l-276.1,1.12a8.49,8.49,0,0,1-8.53-8.47l-1.44-354a8.49,8.49,0,0,1,8.46-8.54l276.2-1.12a8.48,8.48,0,0,1,8.53,8.46l1.44,354A8.64,8.64,0,0,1,428.57,504.62Z"/><path class="cls-4" d="M662.27,460c5.08-6,8.55-13.43,7.91-21.63-1.79-23.79-34.87-18.46-41.22-6.33s-5.53,42.52,2.78,44.59c3.3.88,10.39-1.25,17.58-5.67L645,503l26.7-.1Z"/><path class="cls-5" d="M681.85,430.34a8.25,8.25,0,0,0,1.69-3.2c.39-1.21.79-2.41,1.08-3.71.59-2.5.58-5.4-1.23-7.29a7.92,7.92,0,0,0-5.61-2.38,10.15,10.15,0,0,0-3.89.51c-1.3.41-2.3,1.21-3.6,1.72a15,15,0,0,0-1.93-7.79,7.71,7.71,0,0,0-5.81-3.78,11.7,11.7,0,0,0-7.1,1.43,12.06,12.06,0,0,0-1.59,1,3.92,3.92,0,0,1-1.4.8,1.12,1.12,0,0,1-1.2-.59,9.14,9.14,0,0,0-1.41-1.3,8.57,8.57,0,0,0-8-1.37,8.36,8.36,0,0,0-3.2,2.32c-.69,1-1.28,2.5-2.28,3.21-.4.3-.7-.1-1.1-.4-.61-.39-1.21-.89-1.81-1.29a7.22,7.22,0,0,0-2.7-1.19c-1.4-.29-3.4-.29-3.8,1.62a8.53,8.53,0,0,0,0,2.2c.11,1,.11,1.9.21,2.9a18,18,0,0,0,.31,2.19,2.58,2.58,0,0,1,.11,1.5c-.2.5-1.2.21-1.6.21a6.89,6.89,0,0,0-2.4.51,2.54,2.54,0,0,0-1.39,1.3,2.48,2.48,0,0,0,0,1.21,3,3,0,0,1-.09,1.3c-1.11-.5-4.81-1.69-5.3.22a2.62,2.62,0,0,0,.5,1.9A25.63,25.63,0,0,0,619,426.8a22.32,22.32,0,0,0,4.71,4.48,3.07,3.07,0,0,0-.78,5.1,4,4,0,0,0,2.81.79c.4,0,.9-.2,1.1-.1s.3.19.5.19a15.81,15.81,0,0,0,4.3-.51,14.08,14.08,0,0,0,6.48-3.43,2.39,2.39,0,0,1,1.5-.71c.6,0,1.1.2,1.7.2a12.64,12.64,0,0,0,4.2-1.22,15.13,15.13,0,0,0,1.42,5.59c.6,1.4,1.9,1.6,3.21,1.69,4.1.39,8.1,0,12.2-.05-3.9.92-8,1.33-11.9,2.35-1.79.51-.39,1.7.31,2.5a14.17,14.17,0,0,1,2.82,4.79c1.89-2.51,5.29-4.22,8.29-3.44,3.3.89,5.72,5.38,3.54,8.59-1.2,1.91-3.49,2.61-5.29,3.42,1.41,1.5,1.81,3.69,2.72,5.59.41.9,1,2,2,2.29a2.1,2.1,0,0,1,1.1.4c.3.4.41.8.91,1.09a5,5,0,0,0,6.1-.52,4,4,0,0,0-.13-5.2c1.9-.81,5.3-1.82,4.58-4.72,4.1-.32,14-7,8.46-11.83,3-1.72,5.77-5.93,3.76-9.52-1.51-2.89-5-4.08-7.82-4.27"/><polygon class="cls-6" points="720.41 641.49 634.61 641.84 623.87 779.78 751.67 779.26 720.41 641.49"/><polygon class="cls-7" points="720.41 641.49 694.01 641.6 678.77 779.56 751.67 779.26 720.41 641.49"/><path class="cls-8" d="M536.62,618.63c-9.23-5.46-24.5,1.71-24.47,9.5.1,23.5,22.05,134.32,23.18,141.31s13.13,8.85,13.8-.05c1-14.11,2.94-62.72.75-85.31-.94-9.29-1.87-18.19-2.8-26.09q17.07,30.39,52.65,87.19l12.78-5.85q-15.36-49.59-25-70C576.43,646,566.05,626,561.62,619c-6.85-11.07-18.73-7.12-25-.4"/><path class="cls-9" d="M611.53,721,567.21,617.11c-10.57-16.86-40,3.56-36.35,13.45,8.2,22.27,50,94.3,52.41,100.89Z"/><path class="cls-10" d="M614.05,732.85c2.69,2.25,4.56,4,5.41,5.52a53,53,0,0,1,3.57,8.11l-54.17,31.57c-4.1-3.86-4.78-6.82-2-8.92s5.12-3.92,6.91-5.42l18.6-25.89a1.17,1.17,0,0,1,1.59-.23l3.91,2.93a20.48,20.48,0,0,0,8-2c1.46-.86,3-2.57,4.86-5.15a2.19,2.19,0,0,1,3.06-.51c.09-.06.18-.11.23,0"/><path class="cls-11" d="M551.91,763.77c1.21,3.3,1.92,5.8,1.93,7.5a53.28,53.28,0,0,1-1,8.8l-62.7.26c-1.62-5.4-.73-8.3,2.77-8.72s6.39-.82,8.69-1.23l29-13.12a1.18,1.18,0,0,1,1.5.59l1.92,4.5c3.21,1.48,5.91,2.27,7.91,2.26,1.7,0,3.9-.71,6.79-2a2.2,2.2,0,0,1,2.91,1.08C551.91,763.67,551.91,763.77,551.91,763.77Z"/><path class="cls-12" d="M509.09,636.15c.12,29.5,14.4,98.34,14.42,104.84l30.2-.12c-4.65-61.48-6.37-92.48-5.08-93.18,1.9-1,79,7.38,102.13,7.28,33.3-.13,47-21.19,48-60.09l-66,.26C619.33,596.6,549.29,611.08,523.2,616,512.11,618.23,509.05,628.05,509.09,636.15Z"/><path class="cls-13" d="M622.14,526,583.45,505a96.74,96.74,0,0,0-19.07-17.72c-1.9-.79-5.2-1.28-2.08,4.21S568.45,503,567,504.71s-5.5-.68-7.39,2.23c-1.29,1.91,5.52,4.88,20.34,8.82L608,541.34Z"/><path class="cls-13" d="M561.81,544l-16.93-9.23c-2.44-9-5.26-13.58-8.56-13.66-2.51-1.19,1.94,10.29-2.86,9.31s-16.64-9.63-18.63-7.93c-3,2.61-.26,10.7,2.85,14.69,5.93,7.48,10.85,10.06,22.86,13.31,6.31,1.77,13.12,5.24,20.44,10.52Z"/><path class="cls-14" d="M640.92,521.21a94.82,94.82,0,0,1-50.86-15l-7.53,16.83c13.35,13.14,32,23.87,48.29,23.3,13-.35,19.44-16,10.1-25.14"/><path class="cls-15" d="M640.92,521.21a94.82,94.82,0,0,1-50.86-15l-7.53,16.83c13.35,13.14,32,23.87,48.29,23.3C643.82,546,650.26,530.37,640.92,521.21Z"/><path class="cls-16" d="M622.83,548.28q-21.44,5.49-72.25-12.4c-8.33,17.33-12.08,29.75-11.45,37.14,29.06,15,53.89,21.69,74.39,22-.65,12.11.9,23.7,5.94,34.18,10.29,21.66,70,1.31,90,5.23,12.43-40.95-11.93-57.45-12.14-83.55-.12-28.6-23.29-72.61-26.69-72.59l-30.8.12C638.24,500.32,629.73,524.46,622.83,548.28Z"/><path class="cls-17" d="M547.71,389.6h27.1l27.5,27.5V389.6h13.8a6.91,6.91,0,0,0,6.9-6.9V334.5a6.91,6.91,0,0,0-6.9-6.9h-68.8a6.91,6.91,0,0,0-6.9,6.9v47.8A7.34,7.34,0,0,0,547.71,389.6Z"/><path class="cls-18" d="M460.66,399.54h70.8A10.5,10.5,0,0,1,542,410v85.2a10.5,10.5,0,0,1-10.5,10.5h-70.8a10.5,10.5,0,0,1-10.5-10.5V410A10.63,10.63,0,0,1,460.66,399.54Z"/><path class="cls-19" d="M128.83,68.91a10.5,10.5,0,0,0-10.5,10.5v24.9h439.2V79.41A10.5,10.5,0,0,0,547,68.91Z"/><path class="cls-7" d="M128.44,68.91h418.2a10.5,10.5,0,0,1,10.5,10.5v24.9H117.94V79.41A10.5,10.5,0,0,1,128.44,68.91Z"/><path class="cls-19" d="M145.93,87.31a5.2,5.2,0,1,0,5.2-5.2,5.2,5.2,0,0,0-5.2,5.2"/><circle class="cls-20" cx="166.83" cy="87.31" r="5.2" transform="translate(53.92 238) rotate(-80.78)"/><path class="cls-20" d="M333.63,82.71a3.9,3.9,0,1,1-3.9,3.9A3.91,3.91,0,0,1,333.63,82.71Z"/><circle class="cls-21" cx="151.13" cy="87.31" r="5.2" transform="translate(40.73 222.5) rotate(-80.78)"/><circle class="cls-20" cx="333.63" cy="86.61" r="9.2" transform="translate(194.69 402.06) rotate(-80.78)"/><path class="cls-22" d="M333.63,82.71a3.9,3.9,0,1,1-3.9,3.9,3.91,3.91,0,0,1,3.9-3.9"/><path class="cls-23" d="M155.84,154.52l211.1-.86a3.92,3.92,0,0,1,3.92,3.89V159a3.89,3.89,0,0,1-3.88,3.91l-211.1.86a3.91,3.91,0,0,1-3.92-3.88v-1.4A3.78,3.78,0,0,1,155.84,154.52Z"/><path class="cls-23" d="M155.91,169.92,295,169.36a3.91,3.91,0,0,1,3.92,3.88v1.4a3.92,3.92,0,0,1-3.89,3.92l-139.1.56a3.9,3.9,0,0,1-3.91-3.88v-1.4a3.79,3.79,0,0,1,3.89-3.92"/><path class="cls-24" d="M297.09,285.76c-5.27-11.42-7.38-24.18-3-36.57,12.7-35.64,61.15-13.46,65.83,7.63s-9.5,67.41-23.17,67.11c-5.46-.09-15.4-6.33-24.51-16.08l-6.79,50.85-40.85-11.38Z"/><path class="cls-25" d="M315.14,284.28c-6.76,9.18-15.06,15.58-22.3,14.39-13.61-2.14-20.51-21.85-17.42-41.41.08-.7.26-1.38.34-2.08-16,7.68-30.06,25.38-49.14,22.42-25.92-4-28.05-58,8.21-52.34,24.65,3.81,36.22,9.34,45.86,16.33a34.23,34.23,0,0,1,11.19-12.67,13.9,13.9,0,0,1,4.64-2.29,28.94,28.94,0,0,1,3.68-1c6.66-1.34,16-1.56,26.34-.29a55.52,55.52,0,0,1,5.57.85,17.69,17.69,0,1,1,15.73,20.38,87.8,87.8,0,0,1-20,.3,40.59,40.59,0,0,1-.34,9.53,54.31,54.31,0,0,1-2.53,9.57,8.25,8.25,0,0,0-5.52-4.14,10.5,10.5,0,0,0-12.05,8.82C306.21,277.38,309.39,283,315.14,284.28Z"/><path class="cls-26" d="M337.76,504c-26.09-21.69-47-44.91-56.61-75.07-5.67-17.78,6.71-72.53,9.33-92.74l19.88-4.38c16.74,58.13,44.79,119.12,89.4,172l-62,.25Z"/><path class="cls-27" d="M187.37,505.59l139-.56c-14.9-72.44-23.52-125.81-15.31-173.74q-8.38,2.73-27.32-3.49c-42.22,43.87-68,98-89.07,177.46"/><path class="cls-3" d="M187.37,505.59c2.57-5.51,4.95-11,5.35-12.22,7.21-21.13,4.92-43.52,8.84-64.34q-29.19,17.37-58.39,54.24l-.67-68.6q54.63-64.11,128.12-93.52l9.4,1.66,10.41,1.76c-9.64,38.34-1.26,107.51,2.63,180.49l-105.69.43Z"/><polygon class="cls-23" points="277.43 324.23 263.74 350.28 278.23 374.02 259.09 387.5 286.99 461.99 250.28 386.14 269.13 372.46 256.24 351.41 277.43 324.23"/><path class="cls-28" d="M262.49,425.48A1.44,1.44,0,0,0,261,424l-4.52,0,0-4.52a1.44,1.44,0,0,0-1.46-1.44l-6.13,0a1.45,1.45,0,0,0-1.45,1.46l0,4.52-4.52,0a1.44,1.44,0,0,0-1.44,1.45l0,6.14a1.44,1.44,0,0,0,1.46,1.44l4.52,0,0,4.52a1.45,1.45,0,0,0,1.46,1.45l6.13,0a1.44,1.44,0,0,0,1.44-1.45v-4.52l4.51,0a1.45,1.45,0,0,0,1.45-1.46Z"/><path class="cls-29" d="M540.89,224.91v-48.2a6.91,6.91,0,0,0-6.9-6.9H410.09a6.91,6.91,0,0,0-6.9,6.9v103.2a6.91,6.91,0,0,0,6.9,6.9h41.3v27.5l13.2-13.2,16.4-16.4h51.6a7.79,7.79,0,0,0,7.8-7.7Z"/><line class="cls-30" x1="434.19" y1="197.31" x2="516.49" y2="197.31"/><line class="cls-30" x1="434.19" y1="224.91" x2="516.49" y2="224.91"/><line class="cls-30" x1="434.19" y1="252.41" x2="465.19" y2="252.41"/><path class="cls-31" d="M515.19,252.11a1.9,1.9,0,0,0-1.9-1.9h-5.6v-5.6a1.9,1.9,0,0,0-1.9-1.9h-7.5a1.9,1.9,0,0,0-1.9,1.9v5.6h-5.6a1.9,1.9,0,0,0-1.9,1.9v7.5a1.9,1.9,0,0,0,1.9,1.9h5.6v5.6a1.9,1.9,0,0,0,1.9,1.9h7.5a1.9,1.9,0,0,0,1.9-1.9v-5.6h5.6a1.9,1.9,0,0,0,1.9-1.9Z"/><line class="cls-32" x1="505.96" y1="421.33" x2="501.66" y2="419.63"/><line class="cls-32" x1="503.55" y1="425.23" x2="500.05" y2="422.13"/><line class="cls-32" x1="482.05" y1="421.33" x2="486.35" y2="419.63"/><line class="cls-32" x1="484.46" y1="425.23" x2="487.96" y2="422.13"/><path class="cls-32" d="M490.16,428.93a18.92,18.92,0,0,0,2.3.5"/><path class="cls-32" d="M497.46,429c.1,0,.2-.1.3-.1"/><path class="cls-32" d="M495.46,429.43a14.16,14.16,0,0,0,2-.4"/><path class="cls-32" d="M502.75,426a13.1,13.1,0,0,0,4-8.7.52.52,0,0,0-.2-.4.76.76,0,0,0-.4-.2h-4.7a2.21,2.21,0,0,0-2,1.2,14.34,14.34,0,0,1-3.39,3.6"/><path class="cls-32" d="M485.16,425.93a12.28,12.28,0,0,1-3.9-8.6.52.52,0,0,1,.2-.4.73.73,0,0,1,.39-.2h4.7a2.19,2.19,0,0,1,2,1.2,14.79,14.79,0,0,0,3.41,3.6"/><line class="cls-32" x1="492.96" y1="436.93" x2="492.85" y2="435.13"/><line class="cls-32" x1="495.05" y1="435.53" x2="494.95" y2="436.53"/><path class="cls-32" d="M492.55,430.63l-.8-11.5a2,2,0,0,1,1-2,2.35,2.35,0,0,1,2.3,0,2,2,0,0,1,1,2l-.8,11.9"/><path class="cls-32" d="M498.35,441.83c-.6.9-2.39,1.6-4.39,1.6-2.61,0-4.61-1-4.61-2.3s2.11-2.3,4.61-2.3"/><path class="cls-32" d="M489.55,437.83a2.29,2.29,0,0,1-1.39-1.9,1.89,1.89,0,0,1,.79-1.5"/><path class="cls-32" d="M494,433c3.2,0,5.8,1.3,5.8,2.9,0,.9-.8,1.7-2.1,2.2a9.37,9.37,0,0,1-3.7.7"/><path class="cls-32" d="M498.66,432.33c2.1-.6,3.39-1.7,3.39-2.8a3.2,3.2,0,0,0-1.39-2.7l-2-1.4"/><path class="cls-32" d="M489.35,425.43l-2,1.4a3.2,3.2,0,0,0-1.39,2.7c0,1.9,3.59,3.5,8.09,3.5"/><path class="cls-33" d="M500.16,407.33h-.11a17.42,17.42,0,0,0-2.2-.5c-.19,0-.39-.3-.39-.5s.3-.4.5-.4a15.82,15.82,0,0,1,2.3.5c.2.1.4.3.29.5a.36.36,0,0,1-.39.4"/><path class="cls-34" d="M500.16,407.33h-.11a17.42,17.42,0,0,0-2.2-.5c-.19,0-.39-.3-.39-.5s.3-.4.5-.4a15.82,15.82,0,0,1,2.3.5c.2.1.4.3.29.5A.36.36,0,0,1,500.16,407.33Z"/><path class="cls-33" d="M494.46,450.23a22.3,22.3,0,0,1-.11-44.6.4.4,0,1,1,0,.8,21.35,21.35,0,1,0,15.21,6.2,20.66,20.66,0,0,0-5.4-3.9.45.45,0,0,1,.4-.8,22.41,22.41,0,0,1-10.1,42.3"/><path class="cls-34" d="M494.46,450.23a22.3,22.3,0,0,1-.11-44.6.4.4,0,1,1,0,.8,21.35,21.35,0,1,0,15.21,6.2,20.66,20.66,0,0,0-5.4-3.9.45.45,0,0,1,.4-.8,22.41,22.41,0,0,1-10.1,42.3Z"/><path class="cls-33" d="M503,407.53a.6.6,0,1,1-.61-.6c.31.1.61.3.61.6"/><path class="cls-34" d="M503,407.53a.6.6,0,1,1-.61-.6C502.66,407,503,407.23,503,407.53Z"/><path class="cls-35" d="M476.5,480.2h36.7a3.9,3.9,0,0,1,0,7.8H476.5a3.9,3.9,0,0,1-3.9-3.9,3.84,3.84,0,0,1,3.9-3.9"/><path class="cls-35" d="M466,467.1h57.7a3.9,3.9,0,0,1,0,7.8H466a3.9,3.9,0,0,1-3.9-3.9,3.84,3.84,0,0,1,3.9-3.9"/></svg>