<svg id="Calque_1" data-name="Calque 1" xmlns="http://www.w3.org/2000/svg" viewBox="0 0 850.4 850.4"><defs><style>.cls-1{fill:#d6e9ea;}.cls-1,.cls-13,.cls-14,.cls-15,.cls-17,.cls-18,.cls-2,.cls-21,.cls-22,.cls-23,.cls-25,.cls-26,.cls-27,.cls-30,.cls-32,.cls-36,.cls-37,.cls-40,.cls-41,.cls-42,.cls-43,.cls-44,.cls-45,.cls-47{fill-rule:evenodd;}.cls-2,.cls-29,.cls-33{fill:#263444;}.cls-12,.cls-28,.cls-3,.cls-8{fill:none;}.cls-10,.cls-12,.cls-16,.cls-20,.cls-22,.cls-24,.cls-25,.cls-3,.cls-30,.cls-31,.cls-34,.cls-35,.cls-43,.cls-44,.cls-46,.cls-47,.cls-5,.cls-6,.cls-7,.cls-9{stroke:#073544;}.cls-10,.cls-12,.cls-16,.cls-19,.cls-20,.cls-22,.cls-24,.cls-25,.cls-27,.cls-28,.cls-29,.cls-3,.cls-30,.cls-31,.cls-32,.cls-34,.cls-35,.cls-4,.cls-43,.cls-44,.cls-46,.cls-47,.cls-5,.cls-6,.cls-7,.cls-9{stroke-miterlimit:10;}.cls-10,.cls-27,.cls-34,.cls-36,.cls-4{fill:#fff;}.cls-19,.cls-27,.cls-28,.cls-29,.cls-39,.cls-4{stroke:#263444;}.cls-30,.cls-32,.cls-5{fill:#e8edee;}.cls-6,.cls-9{fill:#f3f2f2;}.cls-45,.cls-7{fill:#c5cfd7;}.cls-34,.cls-9{stroke-width:0.79px;}.cls-11{fill:#3c4957;}.cls-12,.cls-16,.cls-28,.cls-39{stroke-width:0.75px;}.cls-13{fill:#fde3d5;}.cls-14{fill:#ffc20e;}.cls-15,.cls-16{fill:#e65348;}.cls-17{fill:#ba5225;}.cls-18{fill:#e8665c;}.cls-19,.cls-37{fill:#e34033;}.cls-20,.cls-22,.cls-26{fill:#cdaa62;}.cls-21,.cls-38{fill:#073544;}.cls-23,.cls-25{fill:#e4e4e3;}.cls-24{fill:#d0d5d6;}.cls-31,.cls-40,.cls-44{fill:#faddda;}.cls-31{stroke-width:0.9px;}.cls-32{stroke:#083644;}.cls-35{fill:#93c463;}.cls-39{fill:#fdc53b;stroke-linecap:round;stroke-linejoin:round;}.cls-41{fill:#009186;}.cls-42{fill:#00bfb6;}.cls-43,.cls-46,.cls-47{fill:#794a32;}.cls-43{stroke-width:1.05px;}</style></defs><title>Plan de travail 1</title><path class="cls-1" d="M65.48,547.41l1,254.5L785,799l-1-238S665,622.17,493.55,604.28c-119.3-12.45-168.15-58-266.83-74.06C119.39,512.73,65.48,547.41,65.48,547.41"/><path class="cls-2" d="M759,802.4V800l-15.8,2.4h-46.3v-4.9q29.4-7.95,47.5-20.7H770l1.2,25.6Z"/><path class="cls-3" d="M759,802.4V800l-15.8,2.4h-46.3v-4.9q29.4-7.95,47.5-20.7H770l1.2,25.6Z"/><path class="cls-2" d="M617.61,802.4V800l-15.8,2.4h-46.3v-4.9q29.4-7.95,47.5-20.7h25.6l1.2,25.6Z"/><polygon class="cls-4" points="637.3 511.1 603 777.92 626.5 777.92 658.8 664.67 702.91 511.1 637.3 511.1"/><path class="cls-5" d="M637.11,511.1c21.6,75.85,36,119,40.6,129.69s27,56.42,66.9,137.42H769q-47.1-126.57-48.7-137.42c-1.1-7.24-4.6-50.47-5.6-129.69Z"/><path class="cls-6" d="M289.09,48H618a8.18,8.18,0,0,1,8.21,8.2V396.5a8.18,8.18,0,0,1-8.21,8.2H289.09a8.17,8.17,0,0,1-8.2-8.2V56.2A8.11,8.11,0,0,1,289.09,48Z"/><path class="cls-7" d="M289.09,48H618a8.18,8.18,0,0,1,8.21,8.2V75.8H280.79V56.2A8.26,8.26,0,0,1,289.09,48Z"/><path class="cls-8" d="M289.09,48a8.26,8.26,0,0,0-8.3,8.2V75.8h345.4V56.2A8.17,8.17,0,0,0,618,48Z"/><path class="cls-8" d="M290.09,62.4a4.11,4.11,0,1,0,4.1-4.1,4.11,4.11,0,0,0-4.1,4.1"/><circle class="cls-9" cx="294.19" cy="62.4" r="4.1" transform="translate(123.96 310.32) rotate(-67.5)"/><path class="cls-8" d="M302.49,62.4a4.1,4.1,0,1,0,4.1-4.1,4.11,4.11,0,0,0-4.1,4.1"/><circle class="cls-9" cx="306.59" cy="62.4" r="4.1" transform="translate(131.62 321.78) rotate(-67.5)"/><path class="cls-8" d="M314.89,62.4a4.1,4.1,0,1,0,4.1-4.1,4.11,4.11,0,0,0-4.1,4.1"/><circle class="cls-9" cx="318.99" cy="62.4" r="4.1" transform="translate(135.82 330.91) rotate(-66.77)"/><path class="cls-10" d="M593.61,384.1H310.46c-6.23,0-11.27-3.8-11.27-8.5V100.8c0-4.7,5-8.5,11.27-8.5H593.61c6.23,0,11.26,3.8,11.26,8.5V375.6C604.87,380.3,599.84,384.1,593.61,384.1Z"/><path class="cls-11" d="M309.69,107.9h166a3.11,3.11,0,0,1,3.1,3.1v1.1a3.11,3.11,0,0,1-3.1,3.1h-166a3.12,3.12,0,0,1-3.1-3.1V111a3.12,3.12,0,0,1,3.1-3.1"/><rect class="cls-6" x="306.59" y="107.9" width="172.2" height="7.3" rx="3.1"/><path class="cls-11" d="M309.69,120h109.4a3.12,3.12,0,0,1,3.1,3.1v1.1a3.12,3.12,0,0,1-3.1,3.1H309.69a3.12,3.12,0,0,1-3.1-3.1v-1.1a3.12,3.12,0,0,1,3.1-3.1"/><rect class="cls-6" x="306.59" y="120" width="115.6" height="7.3" rx="3.1"/><path class="cls-12" d="M671.71,324.9h0"/><polyline class="cls-13" points="402.95 281.46 405.6 303.07 390.08 303.07 394.29 280.37"/><polyline class="cls-12" points="402.95 281.46 405.6 303.07 390.08 303.07 394.29 280.37"/><path class="cls-13" d="M414.72,269.81c0,12.49-8.74,22.55-16.46,22.55-7.34,0-15.37-10.14-15.37-22.55s7.8-22.54,17.47-22.54,14.36,10.06,14.36,22.54"/><path class="cls-12" d="M414.72,269.81c0,12.49-8.74,22.55-16.46,22.55-7.34,0-15.37-10.14-15.37-22.55s7.8-22.54,17.47-22.54S414.72,257.33,414.72,269.81Z"/><path class="cls-14" d="M424.39,261.23c0-.08.08-.08.08-.15s.08-.16.16-.24.16-.31.23-.47a4.34,4.34,0,0,0,.31-1,6,6,0,0,0-.07-2.34,5,5,0,0,0-.39-1.41c-.08-.15-.16-.23-.16-.39s0-.15.08-.23a4.31,4.31,0,0,0,.23-.62,6.81,6.81,0,0,0,.08-4.14,5.17,5.17,0,0,0-2.11-3,3.06,3.06,0,0,0-.78-.32,1.06,1.06,0,0,0-.46-.07h-.16v-.24a5.07,5.07,0,0,0-.78-2,3.5,3.5,0,0,0-1.56-1.24c-.08-.08-.16-.08-.24-.16a.51.51,0,0,1-.07-.31,3.73,3.73,0,0,0-.24-.55,3.18,3.18,0,0,0-.7-1.09A5.1,5.1,0,0,0,416,239.7a2,2,0,0,0-1.17-.08,3,3,0,0,0-.86.47c0-.08-.16-.16-.23-.24a1.89,1.89,0,0,0-.24-.39,7.83,7.83,0,0,0-.7-.78,5,5,0,0,0-1.95-.93,3.07,3.07,0,0,0-2,.23,2.61,2.61,0,0,1-.47.24,1.64,1.64,0,0,1-.47-.32,2.26,2.26,0,0,0-1-.31,2.14,2.14,0,0,0-1.64.47c-.15.08-.08.08-.23-.08s-.08-.15-.16-.23-.23-.24-.31-.39a4.64,4.64,0,0,0-.62-.63,4.76,4.76,0,0,0-3.44-1,5.24,5.24,0,0,0-2.18.47,3.6,3.6,0,0,0-2.19-.47,4.5,4.5,0,0,0-4.05,1.64,1.44,1.44,0,0,0-.31.39c-.08.08-.08.15-.16.23s-.08.16-.23.08a2.15,2.15,0,0,0-1.64-.47,5.43,5.43,0,0,0-1,.31,1.64,1.64,0,0,1-.47.32c-.07,0-.39-.24-.46-.24a3,3,0,0,0-2-.23,4.53,4.53,0,0,0-1.95.93,2.24,2.24,0,0,0-.7.78,1.47,1.47,0,0,1-.24.39l-.23.24c0-.08-.78-.39-.86-.47a1.5,1.5,0,0,0-1.17.08,5.74,5.74,0,0,0-1.87,1.56,12.91,12.91,0,0,0-.71,1.09c-.07.16-.15.39-.23.55s-.08.23-.08.31a.65.65,0,0,1-.23.16,3.34,3.34,0,0,0-1.56,1.24,4.3,4.3,0,0,0-.78,2v.24h-.16c-.15,0-.31.07-.47.07s-.54.24-.78.32a5.2,5.2,0,0,0-2.1,3,6.88,6.88,0,0,0,.07,4.14c.08.23.16.39.24.62s.08.16.08.23-.16.24-.16.39a9.27,9.27,0,0,0-.39,1.41,7.66,7.66,0,0,0-.08,2.34,4.13,4.13,0,0,0,.31,1l.24.47c.08.08.08.16.15.24s.08.07.08.15.08,0,.08.16-.16.47-.23.62l-.24.7a10.17,10.17,0,0,0-.31,1.41,5.36,5.36,0,0,0,.23,2.73,2.87,2.87,0,0,0,.63.94,1.51,1.51,0,0,0,.39.31c.08.08.16.08.23.15v.39a8.55,8.55,0,0,0,.08,2.81,4.05,4.05,0,0,0,1.25,2,3.53,3.53,0,0,0,4,.16,9.3,9.3,0,0,0,.86-.71,2.64,2.64,0,0,0,3.12.78,4.56,4.56,0,0,0,2.81-2.8,1.69,1.69,0,0,0,3-.47,2.13,2.13,0,0,0,.23-1v-.54a1.48,1.48,0,0,1,.24-.63,3.73,3.73,0,0,0,.23-1.32,2.16,2.16,0,0,0-.08-.71,1.68,1.68,0,0,1,.08-.62c-.31.08,4.53-5.07,4.68-5.23a2.69,2.69,0,0,0,.63-1,10.81,10.81,0,0,0,.86-2.65,19.38,19.38,0,0,1,.46-2.11,2.82,2.82,0,0,1,1.1-1.64,6.44,6.44,0,0,1,1.63-.78,11.28,11.28,0,0,1,1.64.78,3.44,3.44,0,0,1,1.1,1.64,19.38,19.38,0,0,1,.46,2.11,16,16,0,0,0,.94,2.65,3.28,3.28,0,0,0,.62,1c.16.16,5,5.31,4.68,5.23,0,.24.08.39.08.62s-.08.47-.08.71a3.8,3.8,0,0,0,.24,1.32,3.11,3.11,0,0,1,.23.63v.54a4.58,4.58,0,0,0,.24,1,1.69,1.69,0,0,0,3,.47,4.76,4.76,0,0,0,2.81,2.8,2.65,2.65,0,0,0,3.12-.78,2.41,2.41,0,0,0,.86.71,3.39,3.39,0,0,0,4-.16,3.52,3.52,0,0,0,1.25-2,8.55,8.55,0,0,0,.07-2.81c0-.07-.07-.31,0-.39s.16-.07.24-.15a.81.81,0,0,0,.39-.31,2.85,2.85,0,0,0,.62-.94,4.7,4.7,0,0,0,.24-2.73,9,9,0,0,0-.32-1.41c-.07-.23-.15-.46-.23-.7s-.16-.47-.23-.62c.39-.16.39-.08.46-.16"/><path class="cls-12" d="M424.39,261.23c0-.08.08-.08.08-.15s.08-.16.16-.24.16-.31.23-.47a4.34,4.34,0,0,0,.31-1,6,6,0,0,0-.07-2.34,5,5,0,0,0-.39-1.41c-.08-.15-.16-.23-.16-.39s0-.15.08-.23a4.31,4.31,0,0,0,.23-.62,6.81,6.81,0,0,0,.08-4.14,5.17,5.17,0,0,0-2.11-3,3.06,3.06,0,0,0-.78-.32,1.06,1.06,0,0,0-.46-.07h-.16v-.24a5.07,5.07,0,0,0-.78-2,3.5,3.5,0,0,0-1.56-1.24c-.08-.08-.16-.08-.24-.16a.51.51,0,0,1-.07-.31,3.73,3.73,0,0,0-.24-.55,3.18,3.18,0,0,0-.7-1.09A5.1,5.1,0,0,0,416,239.7a2,2,0,0,0-1.17-.08,3,3,0,0,0-.86.47c0-.08-.16-.16-.23-.24a1.89,1.89,0,0,0-.24-.39,7.83,7.83,0,0,0-.7-.78,5,5,0,0,0-1.95-.93,3.07,3.07,0,0,0-2,.23,2.61,2.61,0,0,1-.47.24,1.64,1.64,0,0,1-.47-.32,2.26,2.26,0,0,0-1-.31,2.14,2.14,0,0,0-1.64.47c-.15.08-.08.08-.23-.08s-.08-.15-.16-.23-.23-.24-.31-.39a4.64,4.64,0,0,0-.62-.63,4.76,4.76,0,0,0-3.44-1,5.24,5.24,0,0,0-2.18.47,3.6,3.6,0,0,0-2.19-.47,4.5,4.5,0,0,0-4.05,1.64,1.44,1.44,0,0,0-.31.39c-.08.08-.08.15-.16.23s-.08.16-.23.08a2.15,2.15,0,0,0-1.64-.47,5.43,5.43,0,0,0-1,.31,1.64,1.64,0,0,1-.47.32c-.07,0-.39-.24-.46-.24a3,3,0,0,0-2-.23,4.53,4.53,0,0,0-1.95.93,2.24,2.24,0,0,0-.7.78,1.47,1.47,0,0,1-.24.39l-.23.24c0-.08-.78-.39-.86-.47a1.5,1.5,0,0,0-1.17.08,5.74,5.74,0,0,0-1.87,1.56,12.91,12.91,0,0,0-.71,1.09c-.07.16-.15.39-.23.55s-.08.23-.08.31a.65.65,0,0,1-.23.16,3.34,3.34,0,0,0-1.56,1.24,4.3,4.3,0,0,0-.78,2v.24h-.16c-.15,0-.31.07-.47.07s-.54.24-.78.32a5.2,5.2,0,0,0-2.1,3,6.88,6.88,0,0,0,.07,4.14c.08.23.16.39.24.62s.08.16.08.23-.16.24-.16.39a9.27,9.27,0,0,0-.39,1.41,7.66,7.66,0,0,0-.08,2.34,4.13,4.13,0,0,0,.31,1l.24.47c.08.08.08.16.15.24s.08.07.08.15.08,0,.08.16-.16.47-.23.62l-.24.7a10.17,10.17,0,0,0-.31,1.41,5.36,5.36,0,0,0,.23,2.73,2.87,2.87,0,0,0,.63.94,1.51,1.51,0,0,0,.39.31c.08.08.16.08.23.15v.39a8.55,8.55,0,0,0,.08,2.81,4.05,4.05,0,0,0,1.25,2,3.53,3.53,0,0,0,4,.16,9.3,9.3,0,0,0,.86-.71,2.64,2.64,0,0,0,3.12.78,4.56,4.56,0,0,0,2.81-2.8,1.69,1.69,0,0,0,3-.47,2.13,2.13,0,0,0,.23-1v-.54a1.48,1.48,0,0,1,.24-.63,3.73,3.73,0,0,0,.23-1.32,2.16,2.16,0,0,0-.08-.71,1.68,1.68,0,0,1,.08-.62c-.31.08,4.53-5.07,4.68-5.23a2.69,2.69,0,0,0,.63-1,10.81,10.81,0,0,0,.86-2.65,19.38,19.38,0,0,1,.46-2.11,2.82,2.82,0,0,1,1.1-1.64,6.44,6.44,0,0,1,1.63-.78,11.28,11.28,0,0,1,1.64.78,3.44,3.44,0,0,1,1.1,1.64,19.38,19.38,0,0,1,.46,2.11,16,16,0,0,0,.94,2.65,3.28,3.28,0,0,0,.62,1c.16.16,5,5.31,4.68,5.23,0,.24.08.39.08.62s-.08.47-.08.71a3.8,3.8,0,0,0,.24,1.32,3.11,3.11,0,0,1,.23.63v.54a4.58,4.58,0,0,0,.24,1,1.69,1.69,0,0,0,3,.47,4.76,4.76,0,0,0,2.81,2.8,2.65,2.65,0,0,0,3.12-.78,2.41,2.41,0,0,0,.86.71,3.39,3.39,0,0,0,4-.16,3.52,3.52,0,0,0,1.25-2,8.55,8.55,0,0,0,.07-2.81c0-.07-.07-.31,0-.39s.16-.07.24-.15a.81.81,0,0,0,.39-.31,2.85,2.85,0,0,0,.62-.94,4.7,4.7,0,0,0,.24-2.73,9,9,0,0,0-.32-1.41c-.07-.23-.15-.46-.23-.7s-.16-.47-.23-.62C424.32,261.23,424.32,261.31,424.39,261.23Z"/><path class="cls-15" d="M407.62,383.8q1.17-29.37-12.41-88.32l-3-.7a7.94,7.94,0,0,0-1.95,0c-6.63.94-14.2,8-21.3,20.13-9.67,20-14.51,43.14-16.23,68.89Z"/><path class="cls-16" d="M407.62,383.8q1.17-29.37-12.41-88.32l-3-.7a7.94,7.94,0,0,0-1.95,0c-6.63.94-14.2,8-21.3,20.13-9.67,20-14.51,43.14-16.23,68.89Z"/><path class="cls-17" d="M385,383.8q-1.17-29.37,12.41-88.32l4.21-.31a6.16,6.16,0,0,1,1.25-.08c8.35,0,13.73,7.65,20.75,19.82,9.68,20,14.52,43.14,16.23,68.89Z"/><path class="cls-16" d="M385,383.8q-1.17-29.37,12.41-88.32l4.21-.31a6.16,6.16,0,0,1,1.25-.08c8.35,0,13.73,7.65,20.75,19.82,9.68,20,14.52,43.14,16.23,68.89Z"/><path class="cls-18" d="M369.55,383.72c26.91,0,54.61.16,62.18,0,1.4,0,.78-3.27.23-5.85-5-22.78-15.68-51.88-27.3-82.78l-12.49-.31C378,317.56,372.36,346,369.55,383.72"/><path class="cls-19" d="M369.55,383.72c26.91,0,54.61.16,62.18,0,1.4,0,.78-3.27.23-5.85-5-22.78-15.68-51.88-27.3-82.78l-12.49-.31C378,317.56,372.36,346,369.55,383.72Z"/><path class="cls-20" d="M237.32,403.22c-5.58-5.43-9.67-12.21-9.87-20.34-.58-23.35,32.21-21.29,39.59-10.21s9.43,40.94,1.52,43.79c-3.2,1.11-10.28-.27-17.72-3.82l7.39,30.77-26,2.44Z"/><path class="cls-21" d="M246.13,400.79c-2.68,6.53-6.62,11.58-11.09,12-8.5.83-15.55-10-16.75-22.09a5.44,5.44,0,0,1-.08-1.26c-8.39,7-14.11,19.82-26,20.88-16.16,1.58-25.61-30.36-3.09-32.5,15.31-1.49,23.07.07,29.91,2.73a20.46,20.46,0,0,1,4.76-9.28,7.63,7.63,0,0,1,2.42-2.05,11.87,11.87,0,0,1,2.05-1.1A54.63,54.63,0,0,1,244,364c1.19-.2,2.36-.3,3.52-.4a10.88,10.88,0,1,1,12.4,9.74A51.91,51.91,0,0,1,248,376.54a25.07,25.07,0,0,1,1.27,5.72,33.76,33.76,0,0,1,0,6.12,5.29,5.29,0,0,0-3.9-1.67,6.49,6.49,0,0,0-5.84,7.13c.34,4.13,3.08,7,6.62,7"/><path class="cls-12" d="M246.13,400.79c-2.68,6.53-6.62,11.58-11.09,12-8.5.83-15.55-10-16.75-22.09a5.44,5.44,0,0,1-.08-1.26c-8.39,7-14.11,19.82-26,20.88-16.16,1.58-25.61-30.36-3.09-32.5,15.31-1.49,23.07.07,29.91,2.73a20.46,20.46,0,0,1,4.76-9.28,7.63,7.63,0,0,1,2.42-2.05,11.87,11.87,0,0,1,2.05-1.1A54.63,54.63,0,0,1,244,364c1.19-.2,2.36-.3,3.52-.4a10.88,10.88,0,1,1,12.4,9.74A51.91,51.91,0,0,1,248,376.54a25.07,25.07,0,0,1,1.27,5.72,33.76,33.76,0,0,1,0,6.12,5.29,5.29,0,0,0-3.9-1.67,6.49,6.49,0,0,0-5.84,7.13C239.85,398,242.59,400.88,246.13,400.79Z"/><polygon class="cls-22" points="207.11 538.7 288.11 674.1 348.81 788.5 361.81 788.5 260.11 538.7 207.11 538.7"/><path class="cls-23" d="M340.73,783.24a24.08,24.08,0,0,0-1.8,7.3,50,50,0,0,0,1,8.6h61.4c1.6-5.3.7-8.1-2.8-8.5s-6.3-.8-8.6-1.1l-28.6-12.7a1.07,1.07,0,0,0-1.4.6l-1.8,4.5a19.39,19.39,0,0,1-7.8,2.2,17.76,17.76,0,0,1-6.7-2,2.2,2.2,0,0,0-2.9,1.1h0"/><path class="cls-12" d="M340.73,783.24a24.08,24.08,0,0,0-1.8,7.3,50,50,0,0,0,1,8.6h61.4c1.6-5.3.7-8.1-2.8-8.5s-6.3-.8-8.6-1.1l-28.6-12.7a1.07,1.07,0,0,0-1.4.6l-1.8,4.5a19.39,19.39,0,0,1-7.8,2.2,17.76,17.76,0,0,1-6.7-2,2.2,2.2,0,0,0-2.9,1.1Z"/><path class="cls-24" d="M331.91,770.1l25.2-7.6q-16.5-49.5-40.6-109t-51.6-114.8h-71.2q30.75,70,65.1,127.2A839,839,0,0,0,331.91,770.1Z"/><path class="cls-22" d="M201.81,538.7c-7.6,47.6-22.4,108.3-23.8,110.2-.9,1.3-34.3,12.4-100.1,33.6l2.8,11.5q117.75-16.95,124.1-26.4c6.3-9.4,38-83.4,50.2-128.9Z"/><path class="cls-5" d="M101,672.5l5,18.6q88.05,7.65,107.9-11.2t45.3-141.2h-67.9c-10.7,66.8-16.7,101.5-18,104.4S147.91,655.7,101,672.5Z"/><path class="cls-25" d="M81.15,677.64a24.23,24.23,0,0,0-7.5-.5,50.19,50.19,0,0,0-8.29,2.48Q65.94,683,76,740.08c5.49.66,8.1-.71,7.88-4.23s-.3-6.34-.41-8.66L91,696.82a1.06,1.06,0,0,0-.83-1.27l-4.75-1a19.47,19.47,0,0,1-3.52-7.3,18,18,0,0,1,.81-6.94,2.21,2.21,0,0,0-1.59-2.67h0"/><path class="cls-26" d="M303.31,530l29.8,31.2a91.12,91.12,0,0,1,21.6,13.5c1.2,1.6,2.5,4.6-3.5,3.1s-12.4-2.9-13.6-1,2,5.1-.2,7.6c-1.5,1.7-6-4-13.6-16.9l-31.4-20Z"/><path class="cls-12" d="M303.31,530l29.8,31.2a91.12,91.12,0,0,1,21.6,13.5c1.2,1.6,2.5,4.6-3.5,3.1s-12.4-2.9-13.6-1,2,5.1-.2,7.6c-1.5,1.7-6-4-13.6-16.9l-31.4-20Z"/><path class="cls-26" d="M150.31,492.3l18.3,6.8q-44.4,59.55-47.4,62.8c-4.5,5-2.7,15.8-2.4,21.4-8.1.6-3.2-10.7-13.5-9.8-9.4.8-18,5.4-25.2-3.7-.9-1.1-1.2-4.2,2.6-5.2,9.4-2.4,23.6-7.5,26.1-10,3.6-3.5,17.4-24.2,41.5-62.3"/><path class="cls-12" d="M150.31,492.3l18.3,6.8q-44.4,59.55-47.4,62.8c-4.5,5-2.7,15.8-2.4,21.4-8.1.6-3.2-10.7-13.5-9.8-9.4.8-18,5.4-25.2-3.7-.9-1.1-1.2-4.2,2.6-5.2,9.4-2.4,23.6-7.5,26.1-10C112.41,551.1,126.21,530.4,150.31,492.3Z"/><path class="cls-27" d="M310.81,534.2a37.38,37.38,0,0,1,14,4.7,5,5,0,0,1,2,6.7,4.9,4.9,0,0,1-3.5,2.5c.9.9,1.7,1.8,2.6,2.7l-11.7,16.1c-33.1-24.5-64.9-44.2-75.2-76.9-3.5-11,4.3-44.7,6-57.2l12.3-2.7c10.1,35.8,26.1,71.3,53.5,104.1"/><path class="cls-28" d="M310.81,534.2a37.38,37.38,0,0,1,14,4.7,5,5,0,0,1,2,6.7,4.9,4.9,0,0,1-3.5,2.5c.9.9,1.7,1.8,2.6,2.7l-11.7,16.1c-33.1-24.5-64.9-44.2-75.2-76.9-3.5-11,4.3-44.7,6-57.2l12.3-2.7C267.41,465.9,283.41,501.4,310.81,534.2Z"/><path class="cls-29" d="M184.31,540.9c33.1,9.7,59.6,14.3,79.6,14,2.5,0,4.2-10.4,3.6-13.4-9.6-47.1-15.3-81.3-9.9-111.8-3.5,1.1-9.1.4-16.8-2.2C213.91,455.2,197.71,489.6,184.31,540.9Z"/><path class="cls-4" d="M184.21,529.4c4.5-13,3.1-26.8,5.6-39.7q-29.7,17.55-59.9,68.1l-19.2-9.5,3.9-8.1c-2.1-1.7-3.8-8.3-1.6-9a22.5,22.5,0,0,1,6.8-1.1q42.6-79.05,112.79-106.7l5.8,1,6.4,1.1c-12,46.9,19.4,159.3-13.5,244.9-33.1,1.5-74.7-28.6-122-18.8,7.9-35.4,48.3-71.5,67.8-106.7C177.11,545,183.71,531,184.21,529.4Z"/><polygon class="cls-30" points="236.91 425.2 228.31 441.3 237.21 456 225.41 464.3 242.41 510.3 219.91 463.4 231.61 455 223.71 442 236.91 425.2"/><path class="cls-31" d="M682,415.8l-27.9-8.9,15.4-31.9c-9,2.1-17.1,1.9-20.2-.1-8-5,1.4-37.1,12.1-47.5s47.1-4.8,40.9,20.6c-2.2,8.8-8.2,15.4-15.6,19.9Z"/><path class="cls-32" d="M672.91,333c-12.3-3.7-13-6.4-10.7-13.8,2.4-.8,10.2-.9,18.2.9a21,21,0,0,1,12.9,5.2c5.1,3.4,8.8,8.3,8.8,15.4,3.4,15.6-6.7,27.4-16,29.5-1.3-3.1-2.3-6.1-3.2-8.9a7.5,7.5,0,0,0,3.7-4.3,7.37,7.37,0,0,0-4.7-9.2,3.09,3.09,0,0,0-.8-.2c-4.7,13.4-8.5,22-11.3,25.8-4.3,6-17.7,3.5-22.2,2s-2.1-6-1.3-8.5c.5-1.5,4.5,1.9,5.3-.7s-4.5-6.1-5.2-8.2c-.8-2.5-.4-5.4,1.79-4.7,3,1,7.41,7.2,14.31,9.4,4.6,1.5,9.79-5.1,15.6-19.6-1.2-4.1-2.7-7.6-5.2-10.1"/><path class="cls-12" d="M672.91,333c-12.3-3.7-13-6.4-10.7-13.8,2.4-.8,10.2-.9,18.2.9a21,21,0,0,1,12.9,5.2c5.1,3.4,8.8,8.3,8.8,15.4,3.4,15.6-6.7,27.4-16,29.5-1.3-3.1-2.3-6.1-3.2-8.9a7.5,7.5,0,0,0,3.7-4.3,7.37,7.37,0,0,0-4.7-9.2,3.09,3.09,0,0,0-.8-.2c-4.7,13.4-8.5,22-11.3,25.8-4.3,6-17.7,3.5-22.2,2s-2.1-6-1.3-8.5c.5-1.5,4.5,1.9,5.3-.7s-4.5-6.1-5.2-8.2c-.8-2.5-.4-5.4,1.79-4.7,3,1,7.41,7.2,14.31,9.4,4.6,1.5,9.79-5.1,15.6-19.6C676.91,339,675.41,335.5,672.91,333Z"/><path class="cls-33" d="M532.3,800.93v-2.3l-13.6,2.3H478.9v-4.5q25.2-7.35,40.9-19.1h22l1,23.6Z"/><path class="cls-33" d="M410.75,800.93v-2.3l-13.6,2.3h-39.8v-4.5q25.2-7.35,40.9-19.1h22l1,23.6Z"/><path class="cls-34" d="M446.29,62.4a7.21,7.21,0,1,0,7.2-7.2,7.2,7.2,0,0,0-7.2,7.2"/><path class="cls-8" d="M450.39,62.4a3.1,3.1,0,1,0,3.1-3.1,3.1,3.1,0,0,0-3.1,3.1"/><path class="cls-35" d="M453.49,59.3a3.1,3.1,0,1,1-3.1,3.1A3.1,3.1,0,0,1,453.49,59.3Z"/><path class="cls-36" d="M685.81,456.3l17.3,2.7-.3,18.1a2,2,0,0,1-2.5,2l-11.6-2.4a3.57,3.57,0,0,1-2.9-3.6Z"/><path class="cls-28" d="M685.81,456.3l17.3,2.7-.3,18.1a2,2,0,0,1-2.5,2l-11.6-2.4a3.57,3.57,0,0,1-2.9-3.6Z"/><path class="cls-37" d="M685.81,456.3V460s17.3,3.1,17.3,3v-4Z"/><path class="cls-12" d="M685.81,456.3V460s17.3,3.1,17.3,3v-4Z"/><path class="cls-38" d="M213.71,483.6a.9.9,0,0,0-.9-.9H210v-2.8a.9.9,0,0,0-.9-.9h-3.8a.9.9,0,0,0-.9.9v2.8h-2.8a.9.9,0,0,0-.9.9v3.8a.9.9,0,0,0,.9.9h2.8v2.8a.9.9,0,0,0,.9.9h3.8a.9.9,0,0,0,.9-.9v-2.8h2.8a.9.9,0,0,0,.9-.9Z"/><path class="cls-39" d="M213.71,483.6a.9.9,0,0,0-.9-.9H210v-2.8a.9.9,0,0,0-.9-.9h-3.8a.9.9,0,0,0-.9.9v2.8h-2.8a.9.9,0,0,0-.9.9v3.8a.9.9,0,0,0,.9.9h2.8v2.8a.9.9,0,0,0,.9.9h3.8a.9.9,0,0,0,.9-.9v-2.8h2.8a.9.9,0,0,0,.9-.9Z"/><path class="cls-13" d="M565.38,244.44c4.54-5.34,7.66-11.94,7.13-19.25-1.52-21.21-31-16.57-36.72-5.79s-5.08,37.88,2.32,39.75c2.94.8,9.26-1.07,15.68-5l-4,28.52h23.8Z"/><path class="cls-12" d="M565.38,244.44c4.54-5.34,7.66-11.94,7.13-19.25-1.52-21.21-31-16.57-36.72-5.79s-5.08,37.88,2.32,39.75c2.94.8,9.26-1.07,15.68-5l-4,28.52h23.8Z"/><path class="cls-14" d="M582.93,218.06a7.31,7.31,0,0,0,1.52-2.85c.36-1.07.71-2.14,1-3.3.53-2.22.53-4.81-1.07-6.5a7.09,7.09,0,0,0-5-2.14,9.24,9.24,0,0,0-3.48.44c-1.15.36-2,1.07-3.2,1.52a13.37,13.37,0,0,0-1.7-6.95,6.9,6.9,0,0,0-5.17-3.39,10.39,10.39,0,0,0-6.32,1.25,12.39,12.39,0,0,0-1.43.89,3.47,3.47,0,0,1-1.25.71,1,1,0,0,1-1.07-.53,7.26,7.26,0,0,0-1.25-1.16,7.65,7.65,0,0,0-7.13-1.25,7.5,7.5,0,0,0-2.85,2c-.62.89-1.15,2.23-2,2.85-.35.27-.62-.08-1-.35-.53-.36-1.07-.8-1.6-1.16a6.34,6.34,0,0,0-2.41-1.07c-1.24-.27-3-.27-3.38,1.43a7.15,7.15,0,0,0,0,2c.09.89.09,1.69.17,2.58a14.65,14.65,0,0,0,.27,2,2.28,2.28,0,0,1,.09,1.34c-.18.44-1.07.18-1.42.18a6.25,6.25,0,0,0-2.14.44,2.3,2.3,0,0,0-1.25,1.16,2.15,2.15,0,0,0,0,1.07,2.55,2.55,0,0,1-.09,1.16c-1-.45-4.28-1.52-4.72.18a2.3,2.3,0,0,0,.44,1.69,22.8,22.8,0,0,0,1.52,2.41,19.74,19.74,0,0,0,4.19,4,2.73,2.73,0,0,0-.72,4.54,3.58,3.58,0,0,0,2.5.72c.35,0,.8-.18,1-.09s.27.17.44.17a14,14,0,0,0,3.84-.44,12.66,12.66,0,0,0,5.79-3,2,2,0,0,1,1.34-.62c.53,0,1,.17,1.51.17a11,11,0,0,0,3.74-1.07,13.74,13.74,0,0,0,1.25,5c.54,1.25,1.69,1.43,2.85,1.52,3.66.36,7.22,0,10.88,0-3.48.8-7.13,1.16-10.61,2-1.6.44-.36,1.51.27,2.23a12.74,12.74,0,0,1,2.49,4.28c1.7-2.23,4.73-3.75,7.4-3,2.94.8,5.08,4.81,3.12,7.66-1.07,1.69-3.12,2.32-4.72,3,1.24,1.34,1.6,3.3,2.4,5a3.43,3.43,0,0,0,1.78,2.05,1.82,1.82,0,0,1,1,.36c.27.35.36.71.81,1a4.42,4.42,0,0,0,5.43-.45,3.51,3.51,0,0,0-.09-4.63c1.7-.72,4.73-1.61,4.1-4.19,3.66-.27,12.48-6.15,7.58-10.52,2.67-1.51,5.17-5.26,3.39-8.46-1.34-2.59-4.46-3.66-7-3.84"/><path class="cls-12" d="M582.93,218.06a7.31,7.31,0,0,0,1.52-2.85c.36-1.07.71-2.14,1-3.3.53-2.22.53-4.81-1.07-6.5a7.09,7.09,0,0,0-5-2.14,9.24,9.24,0,0,0-3.48.44c-1.15.36-2,1.07-3.2,1.52a13.37,13.37,0,0,0-1.7-6.95,6.9,6.9,0,0,0-5.17-3.39,10.39,10.39,0,0,0-6.32,1.25,12.39,12.39,0,0,0-1.43.89,3.47,3.47,0,0,1-1.25.71,1,1,0,0,1-1.07-.53,7.26,7.26,0,0,0-1.25-1.16,7.65,7.65,0,0,0-7.13-1.25,7.5,7.5,0,0,0-2.85,2c-.62.89-1.15,2.23-2,2.85-.35.27-.62-.08-1-.35-.53-.36-1.07-.8-1.6-1.16a6.34,6.34,0,0,0-2.41-1.07c-1.24-.27-3-.27-3.38,1.43a7.15,7.15,0,0,0,0,2c.09.89.09,1.69.17,2.58a14.65,14.65,0,0,0,.27,2,2.28,2.28,0,0,1,.09,1.34c-.18.44-1.07.18-1.42.18a6.25,6.25,0,0,0-2.14.44,2.3,2.3,0,0,0-1.25,1.16,2.15,2.15,0,0,0,0,1.07,2.55,2.55,0,0,1-.09,1.16c-1-.45-4.28-1.52-4.72.18a2.3,2.3,0,0,0,.44,1.69,22.8,22.8,0,0,0,1.52,2.41,19.74,19.74,0,0,0,4.19,4,2.73,2.73,0,0,0-.72,4.54,3.58,3.58,0,0,0,2.5.72c.35,0,.8-.18,1-.09s.27.17.44.17a14,14,0,0,0,3.84-.44,12.66,12.66,0,0,0,5.79-3,2,2,0,0,1,1.34-.62c.53,0,1,.17,1.51.17a11,11,0,0,0,3.74-1.07,13.74,13.74,0,0,0,1.25,5c.54,1.25,1.69,1.43,2.85,1.52,3.66.36,7.22,0,10.88,0-3.48.8-7.13,1.16-10.61,2-1.6.44-.36,1.51.27,2.23a12.74,12.74,0,0,1,2.49,4.28c1.7-2.23,4.73-3.75,7.4-3,2.94.8,5.08,4.81,3.12,7.66-1.07,1.69-3.12,2.32-4.72,3,1.24,1.34,1.6,3.3,2.4,5a3.43,3.43,0,0,0,1.78,2.05,1.82,1.82,0,0,1,1,.36c.27.35.36.71.81,1a4.42,4.42,0,0,0,5.43-.45,3.51,3.51,0,0,0-.09-4.63c1.7-.72,4.73-1.61,4.1-4.19,3.66-.27,12.48-6.15,7.58-10.52,2.67-1.51,5.17-5.26,3.39-8.46-1.34-2.59-4.46-3.66-7-3.84"/><path class="cls-40" d="M518.22,293.41l-34.4-18.8a85.89,85.89,0,0,0-16.94-15.87c-1.69-.71-4.63-1.16-1.87,3.75s5.44,10.24,4.1,11.76-4.9-.62-6.59,2c-1.16,1.69,4.9,4.37,18.09,7.93l24.95,22.91Zm-52.15,22.87L451,308c-2.13-8-4.63-12.12-7.57-12.21-2.23-1.07,1.69,9.18-2.59,8.29s-14.79-8.64-16.57-7.13c-2.68,2.32-.27,9.54,2.49,13.1,5.26,6.69,9.63,9,20.32,11.94,5.62,1.61,11.68,4.73,18.18,9.45Z"/><path class="cls-12" d="M518.22,293.41l-34.4-18.8a85.89,85.89,0,0,0-16.94-15.87c-1.69-.71-4.63-1.16-1.87,3.75s5.44,10.24,4.1,11.76-4.9-.62-6.59,2c-1.16,1.69,4.9,4.37,18.09,7.93l24.95,22.91Zm-52.15,22.87L451,308c-2.13-8-4.63-12.12-7.57-12.21-2.23-1.07,1.69,9.18-2.59,8.29s-14.79-8.64-16.57-7.13c-2.68,2.32-.27,9.54,2.49,13.1,5.26,6.69,9.63,9,20.32,11.94,5.62,1.61,11.68,4.73,18.18,9.45Z"/><path class="cls-41" d="M539,288.43a94.77,94.77,0,0,1-50.8-15.2l-7.6,16.8c13.3,13.2,31.9,24,48.2,23.5,13-.3,19.5-15.9,10.2-25.1"/><path class="cls-12" d="M539,288.43a94.77,94.77,0,0,1-50.8-15.2l-7.6,16.8c13.3,13.2,31.9,24,48.2,23.5C541.76,313.23,548.26,297.63,539,288.43Z"/><path class="cls-42" d="M596.3,325.54c0-25.49-20.5-64.79-23.53-64.79H545.32c-1.51,19.52-9.17,41-15.41,62.21q-19.12,4.82-64.35-11.32c-7.48,15.42-10.87,26.47-10.34,33.06,25.85,13.46,47.95,19.52,66.22,19.88A69.39,69.39,0,0,0,523,384.63h71.82c5.55,0,10-3.39,10-7.57V355.25c-3.87-10.07-8.49-19-8.53-29.71"/><path class="cls-12" d="M596.3,325.54c0-25.49-20.5-64.79-23.53-64.79H545.32c-1.51,19.52-9.17,41-15.41,62.21q-19.12,4.82-64.35-11.32c-7.48,15.42-10.87,26.47-10.34,33.06,25.85,13.46,47.95,19.52,66.22,19.88A69.39,69.39,0,0,0,523,384.63h71.82c5.55,0,10-3.39,10-7.57V355.25C601,345.18,596.34,336.26,596.3,325.54Z"/><path class="cls-43" d="M437,534.23l-30.4,21.22c-7.4,14.3-11.7,20.46-13.2,18.48-2.1-2.86,1-6.27-.1-8.58s-7.4-1-13.2.55-4.6-1.87-3.4-3.63a86.45,86.45,0,0,1,20.9-14.3L426.4,514.1Z"/><path class="cls-24" d="M484,481.2c-10,33-40.7,52-72.7,75.8L400,540.1c35.5-36.6,54.9-78.4,66.4-120.9l11.9,3.2C479.91,435.3,487.41,470.2,484,481.2Z"/><path class="cls-44" d="M613.91,507.4,576.61,526c-10,13.5-15.7,19.3-17.1,17.2-2.2-3,1.8-6.2.7-8.5s-8.4-1.5-15.3-.5-5.1-2.2-3.5-3.8A103.5,103.5,0,0,1,567,518l36.8-31.2Z"/><path class="cls-45" d="M676.51,454c-15.3,35.1-52.9,53.3-92.6,76.7l-11.2-19.3c45.2-37,72.3-80.9,90.4-126.2l13.4,4.4c.4,14.1,5.1,52.6,0,64.4"/><path class="cls-12" d="M676.51,454c-15.3,35.1-52.9,53.3-92.6,76.7l-11.2-19.3c45.2-37,72.3-80.9,90.4-126.2l13.4,4.4C676.91,403.7,681.61,442.2,676.51,454Z"/><path class="cls-2" d="M682.21,386c-9,1.3-15.4,1-19-.8,0,33.5-13.5,75.6-33.2,123.8-1.3,3.1-.8,7.7,1.89,8.2q33,6.15,90.5,0c-4.69-57.1-15.89-96.7-40.19-131.2"/><path class="cls-46" d="M488.62,441.27l-23.3-9.7,15.09-28.27c-7.78,1.47-14.68.83-17.29-1.16-6.53-5.08,3.46-33.85,13.31-42.7s40.62-1.78,33.8,21.07c-2.44,7.9-8,13.52-14.6,17.37Z"/><path class="cls-21" d="M475.84,355.68c-.53.35-1.13.82-1.16,1.45a4.77,4.77,0,0,0,.24,1.69,7.76,7.76,0,0,0,2,3c3.16,3.29,7.32,5.28,10.22,8.75,2.6,3.14,3.47,7.56,3.08,11.91,3-.39,6.57-.62,8.77,1.79,1.78,2,1.23,5.37.1,7.74a9.39,9.39,0,0,1-5.16,4.69,3.07,3.07,0,0,0-1.2.53c-.27.18-.31.4-.21.78a16.18,16.18,0,0,0,.8,3c1,2.53,3.46,3.63,5.75,4.05a20.5,20.5,0,0,0,3.69.25,24.14,24.14,0,0,0,3.85-.3,10.17,10.17,0,0,0,6.59-4.77,32.77,32.77,0,0,0,3.9-9,43.69,43.69,0,0,0,1.75-10.1,26.45,26.45,0,0,0-.94-9.27,14.81,14.81,0,0,0,9-1.39c3.08-1.65,8-7.73,9.12-10.41a18.54,18.54,0,0,0,1.61-6.75,10.28,10.28,0,0,0-3.25-7.1c-.15-.17-.49-.28-.64-.45a.84.84,0,0,1-.18-.68,7.62,7.62,0,0,0-.35-2.08,8.85,8.85,0,0,0-2.56-3.76,9.86,9.86,0,0,0-3.92-2.27,7.16,7.16,0,0,0-4.15,0c-.55.25-.91.45-1.43.07s-.84-.81-1.35-1.19a9.06,9.06,0,0,0-3.84-1.56,6.79,6.79,0,0,0-4,.55,11.82,11.82,0,0,0-3.35,2.56c-2.1,2.21-4.37,4.17-5.88,7.06a20.4,20.4,0,0,0-2.19,9.59,30.34,30.34,0,0,0-10.19-2.86c-3.84-.42-12,2.6-14.62,4.54"/><path class="cls-12" d="M475.84,355.68c-.53.35-1.13.82-1.16,1.45a4.77,4.77,0,0,0,.24,1.69,7.76,7.76,0,0,0,2,3c3.16,3.29,7.32,5.28,10.22,8.75,2.6,3.14,3.47,7.56,3.08,11.91,3-.39,6.57-.62,8.77,1.79,1.78,2,1.23,5.37.1,7.74a9.39,9.39,0,0,1-5.16,4.69,3.07,3.07,0,0,0-1.2.53c-.27.18-.31.4-.21.78a16.18,16.18,0,0,0,.8,3c1,2.53,3.46,3.63,5.75,4.05a20.5,20.5,0,0,0,3.69.25,24.14,24.14,0,0,0,3.85-.3,10.17,10.17,0,0,0,6.59-4.77,32.77,32.77,0,0,0,3.9-9,43.69,43.69,0,0,0,1.75-10.1,26.45,26.45,0,0,0-.94-9.27,14.81,14.81,0,0,0,9-1.39c3.08-1.65,8-7.73,9.12-10.41a18.54,18.54,0,0,0,1.61-6.75,10.28,10.28,0,0,0-3.25-7.1c-.15-.17-.49-.28-.64-.45a.84.84,0,0,1-.18-.68,7.62,7.62,0,0,0-.35-2.08,8.85,8.85,0,0,0-2.56-3.76,9.86,9.86,0,0,0-3.92-2.27,7.16,7.16,0,0,0-4.15,0c-.55.25-.91.45-1.43.07s-.84-.81-1.35-1.19a9.06,9.06,0,0,0-3.84-1.56,6.79,6.79,0,0,0-4,.55,11.82,11.82,0,0,0-3.35,2.56c-2.1,2.21-4.37,4.17-5.88,7.06a20.4,20.4,0,0,0-2.19,9.59,30.34,30.34,0,0,0-10.19-2.86C486.62,350.72,478.43,353.74,475.84,355.68Z"/><polygon class="cls-24" points="427.61 532.8 398.2 777.42 418.41 777.42 446.11 673.67 484.11 532.8 427.61 532.8"/><path class="cls-5" d="M427.51,532.8c18.6,69.65,30.9,109.38,34.9,119.19s23.2,51.82,57.5,126.22h19.9c-27-77.57-39.9-119.68-40.8-126.22s-3.9-46.37-4.8-119.19Z"/><path class="cls-47" d="M556.31,592.9c1.4,3.3,12.2,13.6,19.7,19.6,3,2.4,1.6,5.2.5,6-9.7,5.9-15.7-1.7-23.8-6.1-8.9-4.8-8.5,7.9-15.5,4.2,2.4-5.2,7.8-14.7,5.6-21.3q-1.5-4.35-19.7-78.1l18.7.6c7.7,45.5,12.6,70.6,14.5,75.1"/><path class="cls-29" d="M483.81,421.2c-7.8-.3-13.1-1.6-15.9-3.8-5,30.3-22.7,66.2-46.5,106.7-1.5,2.6-1.8,6.8.4,7.7q27,10.8,76.6,14.5C502.81,494,499.21,456.3,483.81,421.2Z"/><path class="cls-4" d="M489.41,419l.7.7.8.1c.1.3.1.5.2.8q60.45,60.45,65.8,165.6l-20.6,1.7q-8.7-59.85-28.9-88c9.8,54.6,17.7,119.1,11.7,170.3l-105-19.9c28.5-51.8,62.7-220.3,66.7-232.5l8.6,1.6Z"/><path class="cls-28" d="M480.51,463.4l17.3,2.7-.3,18.1a2,2,0,0,1-2.5,2l-11.6-2.4a3.57,3.57,0,0,1-2.9-3.6Z"/><path class="cls-4" d="M755,552.3a437.51,437.51,0,0,1,15.5,94.6H646.41c22.9-61.4,30.4-248.9,32.7-262.8h10.1v-.6c.3.2.7.4,1,.6h.9c.1.3.2.5.3.8A225.6,225.6,0,0,1,725,411.6"/><path class="cls-44" d="M726,592.23c-.12,4.15-2.42,3.92-3.39,3-7.64-7.46-5.46-16.91-6.19-27.06-.73-11.15-8.25-5.38-9-14.14,4.12.23,6.54,10.6,31.17-22.84L746,550.72c-24.38,27.44-19.52,31.21-20,41.51"/><path class="cls-36" d="M724.11,410.6c42.9,40.8,75.4,102.9,15.8,155.2l-22.5-17.9c13.1-12.1,20.4-23.2,23.6-33.3,6.5-20.8-4-37.3-16.8-49"/><path class="cls-28" d="M724.11,410.6c42.9,40.8,75.4,102.9,15.8,155.2l-22.5-17.9c13.1-12.1,20.4-23.2,23.6-33.3,6.5-20.8-4-37.3-16.8-49"/><path class="cls-39" d="M700.52,432.12a.9.9,0,0,0-.9-.9h-2.8v-2.8a.9.9,0,0,0-.9-.9h-3.8a.9.9,0,0,0-.9.9v2.8h-2.8a.9.9,0,0,0-.9.9v3.8a.9.9,0,0,0,.9.9h2.8v2.8a.9.9,0,0,0,.9.9h3.8a.9.9,0,0,0,.9-.9v-2.8h2.8a.9.9,0,0,0,.9-.9Z"/></svg>