<?xml version="1.0" encoding="UTF-8"?>
<svg width="32px" height="40px" viewBox="0 0 32 40" version="1.1" xmlns="http://www.w3.org/2000/svg" xmlns:xlink="http://www.w3.org/1999/xlink">
    <!-- Generator: Sketch 55 (78076) - https://sketchapp.com -->
    <title>phone-action-camera-1</title>
    <desc>Created with Sketch.</desc>
    <g id="Symbols" stroke="none" stroke-width="1" fill="none" fill-rule="evenodd" stroke-linecap="round" stroke-linejoin="round">
        <g id="Footer" transform="translate(-1197.000000, -400.000000)" stroke="#FFFFFF" stroke-width="1.5">
            <g id="phone-action-camera-1" transform="translate(1198.000000, 401.000000)">
                <path d="M25.5,30.5 L0.5,30.5" id="Shape"></path>
                <path d="M14,33.5 C14,33.7761424 13.7761424,34 13.5,34 C13.2238576,34 13,33.7761424 13,33.5 C13,33.2238576 13.2238576,33 13.5,33 C13.7761424,33 14,33.2238576 14,33.5 Z" id="Shape" fill="#FFFFFF"></path>
                <path d="M26,23.9565217 L26,34.6956522 C26,36.5205931 24.209139,38 22,38 L4,38 C1.790861,38 0,36.5205931 0,34.6956522 L0,3.30434783 C0,1.47940691 1.790861,3.66856304e-16 4,0 L14,0" id="Shape"></path>
                <path d="M30,3.66666667 L26.75,4.77777778 L26.75,3.66666667 C26.75,2.74619208 26.0224627,2 25.125,2 L18.625,2 C17.7275373,2 17,2.74619208 17,3.66666667 L17,10.3333333 C17,11.2538079 17.7275373,12 18.625,12 L25.125,12 C26.0224627,12 26.75,11.2538079 26.75,10.3333333 L26.75,9.22222222 L30,10.3333333 L30,3.66666667 Z" id="Shape"></path>
            </g>
        </g>
    </g>
</svg>