<?xml version="1.0" encoding="utf-8"?>
<!-- Generator: Adobe Illustrator 23.1.1, SVG Export Plug-In . SVG Version: 6.00 Build 0)  -->
<svg version="1.1" id="Calque_1" xmlns="http://www.w3.org/2000/svg" xmlns:xlink="http://www.w3.org/1999/xlink" x="0px" y="0px"
	 viewBox="0 0 25 22" style="enable-background:new 0 0 25 22;" xml:space="preserve">
<style type="text/css">
	.st0{fill:none;stroke:#FFFFFF;stroke-linecap:round;stroke-linejoin:round;}
</style>
<title>Visio</title>
<desc>Created with Sketch.</desc>
<g id="Symbols">
	<g id="ChipVisio" transform="translate(-21.000000, -7.000000)">
		<g id="Visio" transform="translate(22.000000, 8.000000)">
			<g id="Group-13">
				<path id="Stroke-1" class="st0" d="M11.5,0.3c-0.2,0-0.4,0.2-0.4,0.4S11.3,1,11.5,1s0.4-0.2,0.4-0.4S11.7,0.3,11.5,0.3"/>
				<path id="Stroke-3" class="st0" d="M11.5,5.5c1.2,0,2.2,1,2.2,2.2s-1,2.2-2.2,2.2S9.2,9,9.2,7.8S10.3,5.5,11.5,5.5z"/>
				<path id="Stroke-5" class="st0" d="M15.2,13c-1.1-2.1-3.7-2.9-5.8-1.8c-0.7,0.4-1.4,1-1.8,1.8"/>
				<path id="Stroke-7" class="st0" d="M15.2,1h6c0.8,0,1.5,0.7,1.5,1.5v12c0,0.8-0.7,1.5-1.5,1.5H1.8c-0.8,0-1.5-0.7-1.5-1.5v-12
					C0.2,1.7,0.9,1,1.8,1h6"/>
				<polygon id="Stroke-9" class="st0" points="15.2,20.5 7.8,20.5 8.5,16 14.5,16 				"/>
				<path id="Stroke-11" class="st0" d="M5.5,20.5h12"/>
			</g>
		</g>
	</g>
</g>
</svg>
